<svg xmlns="http://www.w3.org/2000/svg" viewBox="0 0 586 400" width="586" height="400" preserveAspectRatio="xMidYMid meet" style="width: 100%; height: 100%; transform: translate3d(0px, 0px, 0px); content-visibility: visible;"><defs><clipPath id="__lottie_element_6"><rect width="586" height="400" x="0" y="0"></rect></clipPath><linearGradient id="__lottie_element_10" spreadMethod="pad" gradientUnits="userSpaceOnUse" x1="-289.2019958496094" y1="0" x2="295.97900390625" y2="0"><stop offset="0%" stop-color="rgb(96,49,192)"></stop><stop offset="50%" stop-color="rgb(99,132,200)"></stop><stop offset="100%" stop-color="rgb(102,215,209)"></stop></linearGradient><linearGradient id="__lottie_element_14" spreadMethod="pad" gradientUnits="userSpaceOnUse" x1="-290.5660095214844" y1="0" x2="295.2829895019531" y2="0"><stop offset="0%" stop-color="rgb(255,81,84)"></stop><stop offset="50%" stop-color="rgb(175,65,138)"></stop><stop offset="100%" stop-color="rgb(96,49,192)"></stop></linearGradient><linearGradient id="__lottie_element_18" spreadMethod="pad" gradientUnits="userSpaceOnUse" x1="-289.2019958496094" y1="0" x2="295.97900390625" y2="0"><stop offset="0%" stop-color="rgb(96,49,192)"></stop><stop offset="50%" stop-color="rgb(99,132,200)"></stop><stop offset="100%" stop-color="rgb(102,215,209)"></stop></linearGradient><linearGradient id="__lottie_element_22" spreadMethod="pad" gradientUnits="userSpaceOnUse" x1="-258.75299072265625" y1="1.475000023841858" x2="263.82000732421875" y2="0"><stop offset="0%" stop-color="rgb(255,81,84)"></stop><stop offset="50%" stop-color="rgb(175,65,138)"></stop><stop offset="100%" stop-color="rgb(96,49,192)"></stop></linearGradient><linearGradient id="__lottie_element_26" spreadMethod="pad" gradientUnits="userSpaceOnUse" x1="-259.6910095214844" y1="0" x2="262.13800048828125" y2="0"><stop offset="0%" stop-color="rgb(96,49,192)"></stop><stop offset="50%" stop-color="rgb(99,132,200)"></stop><stop offset="100%" stop-color="rgb(102,215,209)"></stop></linearGradient><linearGradient id="__lottie_element_30" spreadMethod="pad" gradientUnits="userSpaceOnUse" x1="-258.75299072265625" y1="1.475000023841858" x2="263.82000732421875" y2="0"><stop offset="0%" stop-color="rgb(255,81,84)"></stop><stop offset="50%" stop-color="rgb(175,65,138)"></stop><stop offset="100%" stop-color="rgb(96,49,192)"></stop></linearGradient><clipPath id="__lottie_element_32"><path d="M0,0 L400,0 L400,400 L0,400z"></path></clipPath></defs><g clip-path="url(#__lottie_element_6)"><g clip-path="url(#__lottie_element_32)" transform="matrix(1.7000000476837158,0,0,1.7000000476837158,-47,-140)" opacity="1" style="display: block;"><g transform="matrix(1.1323974132537842,0,0,1.1323974132537842,72.24176025390625,72.24176025390625)" opacity="1" style="display: block;"><g opacity="1" transform="matrix(1,0,0,1,20.83300018310547,20.83300018310547)"><path fill="rgb(215,188,248)" fill-opacity="1" d=" M0,4.166999816894531 C2.3010001182556152,4.166999816894531 4.166999816894531,2.3010001182556152 4.166999816894531,0 C4.166999816894531,-2.302000045776367 2.3010001182556152,-4.166999816894531 0,-4.166999816894531 C-2.302000045776367,-4.166999816894531 -4.166999816894531,-2.302000045776367 -4.166999816894531,0 C-4.166999816894531,2.3010001182556152 -2.302000045776367,4.166999816894531 0,4.166999816894531z"></path></g></g><g transform="matrix(1.1383752822875977,0,0,1.1383752822875977,66.35126495361328,72.11722564697266)" opacity="1" style="display: block;"><g opacity="1" transform="matrix(1,0,0,1,62.50199890136719,20.83300018310547)"><path fill="rgb(237,225,251)" fill-opacity="1" d=" M0,4.166999816894531 C2.3010001182556152,4.166999816894531 4.166999816894531,2.3010001182556152 4.166999816894531,0 C4.166999816894531,-2.302000045776367 2.3010001182556152,-4.166999816894531 0,-4.166999816894531 C-2.302000045776367,-4.166999816894531 -4.166999816894531,-2.302000045776367 -4.166999816894531,0 C-4.166999816894531,2.3010001182556152 -2.302000045776367,4.166999816894531 0,4.166999816894531z"></path></g></g><g transform="matrix(1.1206939220428467,0,0,1.1206939220428467,62.42768096923828,72.48558044433594)" opacity="1" style="display: block;"><g opacity="1" transform="matrix(1,0,0,1,104.16699981689453,20.83300018310547)"><path fill="rgb(231,212,249)" fill-opacity="1" d=" M0,4.166999816894531 C2.302000045776367,4.166999816894531 4.166999816894531,2.3010001182556152 4.166999816894531,0 C4.166999816894531,-2.302000045776367 2.302000045776367,-4.166999816894531 0,-4.166999816894531 C-2.3010001182556152,-4.166999816894531 -4.166999816894531,-2.302000045776367 -4.166999816894531,0 C-4.166999816894531,2.3010001182556152 -2.3010001182556152,4.166999816894531 0,4.166999816894531z"></path></g></g><g transform="matrix(1.0851792097091675,0,0,1.0851792097091675,62.57806396484375,73.2254638671875)" opacity="1" style="display: block;"><g opacity="1" transform="matrix(1,0,0,1,145.83299255371094,20.83300018310547)"><path fill="rgb(246,239,252)" fill-opacity="1" d=" M0,4.166999816894531 C2.3010001182556152,4.166999816894531 4.166999816894531,2.3010001182556152 4.166999816894531,0 C4.166999816894531,-2.302000045776367 2.3010001182556152,-4.166999816894531 0,-4.166999816894531 C-2.302000045776367,-4.166999816894531 -4.166999816894531,-2.302000045776367 -4.166999816894531,0 C-4.166999816894531,2.3010001182556152 -2.302000045776367,4.166999816894531 0,4.166999816894531z"></path></g></g><g transform="matrix(0.8719599843025208,0,0,0.8719599843025208,99.00762939453125,77.6674575805664)" opacity="1" style="display: block;"><g opacity="1" transform="matrix(1,0,0,1,187.50100708007812,20.83300018310547)"><path fill="rgb(230,211,249)" fill-opacity="1" d=" M0,4.166999816894531 C2.3010001182556152,4.166999816894531 4.168000221252441,2.3010001182556152 4.168000221252441,0 C4.168000221252441,-2.302000045776367 2.3010001182556152,-4.166999816894531 0,-4.166999816894531 C-2.302000045776367,-4.166999816894531 -4.168000221252441,-2.302000045776367 -4.168000221252441,0 C-4.168000221252441,2.3010001182556152 -2.302000045776367,4.166999816894531 0,4.166999816894531z"></path></g></g><g transform="matrix(0.6720137596130371,0,0,0.6720137596130371,150.16360473632812,81.83293914794922)" opacity="1" style="display: block;"><g opacity="1" transform="matrix(1,0,0,1,229.16700744628906,20.83300018310547)"><path fill="rgb(233,218,250)" fill-opacity="1" d=" M0,4.166999816894531 C2.302000045776367,4.166999816894531 4.166999816894531,2.3010001182556152 4.166999816894531,0 C4.166999816894531,-2.302000045776367 2.302000045776367,-4.166999816894531 0,-4.166999816894531 C-2.3010001182556152,-4.166999816894531 -4.166999816894531,-2.302000045776367 -4.166999816894531,0 C-4.166999816894531,2.3010001182556152 -2.3010001182556152,4.166999816894531 0,4.166999816894531z"></path></g></g><g transform="matrix(0.47192227840423584,0,0,0.47192227840423584,86.0014419555664,108.0053939819336)" opacity="1" style="display: block;"><g opacity="1" transform="matrix(1,0,0,1,20.83300018310547,62.500999450683594)"><path fill="rgb(235,222,250)" fill-opacity="1" d=" M0,4.168000221252441 C2.3010001182556152,4.168000221252441 4.166999816894531,2.302000045776367 4.166999816894531,0.0010000000474974513 C4.166999816894531,-2.3010001182556152 2.3010001182556152,-4.168000221252441 0,-4.168000221252441 C-2.302000045776367,-4.168000221252441 -4.166999816894531,-2.3010001182556152 -4.166999816894531,0.0010000000474974513 C-4.166999816894531,2.302000045776367 -2.302000045776367,4.168000221252441 0,4.168000221252441z"></path></g></g><g transform="matrix(0.27195999026298523,0,0,0.27195999026298523,120.50395202636719,120.50323486328125)" opacity="1" style="display: block;"><g opacity="1" transform="matrix(1,0,0,1,62.50199890136719,62.500999450683594)"><path fill="rgb(202,167,245)" fill-opacity="1" d=" M0,4.168000221252441 C2.3010001182556152,4.168000221252441 4.166999816894531,2.302000045776367 4.166999816894531,0.0010000000474974513 C4.166999816894531,-2.3010001182556152 2.3010001182556152,-4.168000221252441 0,-4.168000221252441 C-2.302000045776367,-4.168000221252441 -4.166999816894531,-2.3010001182556152 -4.166999816894531,0.0010000000474974513 C-4.166999816894531,2.302000045776367 -2.302000045776367,4.168000221252441 0,4.168000221252441z"></path></g></g><g transform="matrix(0.07196575403213501,0,0,0.07196575403213501,171.67054748535156,133.00308227539062)" opacity="1" style="display: block;"><g opacity="1" transform="matrix(1,0,0,1,104.16699981689453,62.500999450683594)"><path fill="rgb(255,253,255)" fill-opacity="1" d=" M0,4.168000221252441 C2.302000045776367,4.168000221252441 4.166999816894531,2.302000045776367 4.166999816894531,0.0010000000474974513 C4.166999816894531,-2.3010001182556152 2.302000045776367,-4.168000221252441 0,-4.168000221252441 C-2.3010001182556152,-4.168000221252441 -4.166999816894531,-2.3010001182556152 -4.166999816894531,0.0010000000474974513 C-4.166999816894531,2.302000045776367 -2.3010001182556152,4.168000221252441 0,4.168000221252441z"></path></g></g><g transform="matrix(-0.12185890972614288,0,0,-0.12185890972614288,238.60403442382812,145.1173095703125)" opacity="1" style="display: block;"><g opacity="1" transform="matrix(1,0,0,1,145.83299255371094,62.500999450683594)"><path fill="rgb(225,205,249)" fill-opacity="1" d=" M0,4.168000221252441 C2.3010001182556152,4.168000221252441 4.166999816894531,2.302000045776367 4.166999816894531,0.0010000000474974513 C4.166999816894531,-2.3010001182556152 2.3010001182556152,-4.168000221252441 0,-4.168000221252441 C-2.302000045776367,-4.168000221252441 -4.166999816894531,-2.3010001182556152 -4.166999816894531,0.0010000000474974513 C-4.166999816894531,2.302000045776367 -2.302000045776367,4.168000221252441 0,4.168000221252441z"></path></g></g><g transform="matrix(-0.27290835976600647,0,0,-0.27290835976600647,313.6716003417969,154.55804443359375)" opacity="1" style="display: block;"><g opacity="1" transform="matrix(1,0,0,1,187.50100708007812,62.500999450683594)"><path fill="rgb(202,166,245)" fill-opacity="1" d=" M0,4.168000221252441 C2.3010001182556152,4.168000221252441 4.168000221252441,2.302000045776367 4.168000221252441,0.0010000000474974513 C4.168000221252441,-2.3010001182556152 2.3010001182556152,-4.168000221252441 0,-4.168000221252441 C-2.302000045776367,-4.168000221252441 -4.168000221252441,-2.3010001182556152 -4.168000221252441,0.0010000000474974513 C-4.168000221252441,2.302000045776367 -2.302000045776367,4.168000221252441 0,4.168000221252441z"></path></g></g><g transform="matrix(-0.35984310507774353,0,0,-0.35984310507774353,386.63116455078125,159.99156188964844)" opacity="1" style="display: block;"><g opacity="1" transform="matrix(1,0,0,1,229.16700744628906,62.500999450683594)"><path fill="rgb(239,230,251)" fill-opacity="1" d=" M0,4.168000221252441 C2.302000045776367,4.168000221252441 4.166999816894531,2.302000045776367 4.166999816894531,0.0010000000474974513 C4.166999816894531,-2.3010001182556152 2.302000045776367,-4.168000221252441 0,-4.168000221252441 C-2.3010001182556152,-4.168000221252441 -4.166999816894531,-2.3010001182556152 -4.166999816894531,0.0010000000474974513 C-4.166999816894531,2.302000045776367 -2.3010001182556152,4.168000221252441 0,4.168000221252441z"></path></g></g><g transform="matrix(-0.3761425018310547,0,0,-0.3761425018310547,103.66917419433594,218.34864807128906)" opacity="1" style="display: block;"><g opacity="1" transform="matrix(1,0,0,1,20.83300018310547,104.16699981689453)"><path fill="rgb(213,184,247)" fill-opacity="1" d=" M0,4.166999816894531 C2.3010001182556152,4.166999816894531 4.166999816894531,2.302000045776367 4.166999816894531,0 C4.166999816894531,-2.3010001182556152 2.3010001182556152,-4.166999816894531 0,-4.166999816894531 C-2.302000045776367,-4.166999816894531 -4.166999816894531,-2.3010001182556152 -4.166999816894531,0 C-4.166999816894531,2.302000045776367 -2.302000045776367,4.166999816894531 0,4.166999816894531z"></path></g></g><g transform="matrix(-0.32807549834251404,0,0,-0.32807549834251404,158.0073699951172,213.34164428710938)" opacity="1" style="display: block;"><g opacity="1" transform="matrix(1,0,0,1,62.50199890136719,104.16699981689453)"><path fill="rgb(208,174,246)" fill-opacity="1" d=" M0,4.166999816894531 C2.3010001182556152,4.166999816894531 4.166999816894531,2.302000045776367 4.166999816894531,0 C4.166999816894531,-2.3010001182556152 2.3010001182556152,-4.166999816894531 0,-4.166999816894531 C-2.302000045776367,-4.166999816894531 -4.166999816894531,-2.3010001182556152 -4.166999816894531,0 C-4.166999816894531,2.302000045776367 -2.302000045776367,4.166999816894531 0,4.166999816894531z"></path></g></g><g transform="matrix(-0.23156757652759552,0,0,-0.23156757652759552,203.28871154785156,203.28871154785156)" opacity="1" style="display: block;"><g opacity="1" transform="matrix(1,0,0,1,104.16699981689453,104.16699981689453)"><path fill="rgb(225,205,249)" fill-opacity="1" d=" M0,4.166999816894531 C2.302000045776367,4.166999816894531 4.166999816894531,2.302000045776367 4.166999816894531,0 C4.166999816894531,-2.3010001182556152 2.302000045776367,-4.166999816894531 0,-4.166999816894531 C-2.3010001182556152,-4.166999816894531 -4.166999816894531,-2.3010001182556152 -4.166999816894531,0 C-4.166999816894531,2.302000045776367 -2.3010001182556152,4.166999816894531 0,4.166999816894531z"></path></g></g><g transform="matrix(-0.10864492505788803,0,0,-0.10864492505788803,236.677001953125,190.48422241210938)" opacity="1" style="display: block;"><g opacity="1" transform="matrix(1,0,0,1,145.83299255371094,104.16699981689453)"><path fill="rgb(250,248,253)" fill-opacity="1" d=" M0,4.166999816894531 C2.3010001182556152,4.166999816894531 4.166999816894531,2.302000045776367 4.166999816894531,0 C4.166999816894531,-2.3010001182556152 2.3010001182556152,-4.166999816894531 0,-4.166999816894531 C-2.302000045776367,-4.166999816894531 -4.166999816894531,-2.3010001182556152 -4.166999816894531,0 C-4.166999816894531,2.302000045776367 -2.302000045776367,4.166999816894531 0,4.166999816894531z"></path></g></g><g transform="matrix(0.016928624361753464,0,0,0.016928624361753464,259.3268737792969,177.4036102294922)" opacity="1" style="display: block;"><g opacity="1" transform="matrix(1,0,0,1,187.50100708007812,104.16699981689453)"><path fill="rgb(237,224,251)" fill-opacity="1" d=" M0,4.166999816894531 C2.3010001182556152,4.166999816894531 4.168000221252441,2.302000045776367 4.168000221252441,0 C4.168000221252441,-2.3010001182556152 2.3010001182556152,-4.166999816894531 0,-4.166999816894531 C-2.302000045776367,-4.166999816894531 -4.168000221252441,-2.3010001182556152 -4.168000221252441,0 C-4.168000221252441,2.302000045776367 -2.302000045776367,4.166999816894531 0,4.166999816894531z"></path></g></g><g transform="matrix(0.12403605133295059,0,0,0.12403605133295059,275.7420349121094,166.24655151367188)" opacity="1" style="display: block;"><g opacity="1" transform="matrix(1,0,0,1,229.16700744628906,104.16699981689453)"><path fill="rgb(245,237,252)" fill-opacity="1" d=" M0,4.166999816894531 C2.302000045776367,4.166999816894531 4.166999816894531,2.302000045776367 4.166999816894531,0 C4.166999816894531,-2.3010001182556152 2.302000045776367,-4.166999816894531 0,-4.166999816894531 C-2.3010001182556152,-4.166999816894531 -4.166999816894531,-2.3010001182556152 -4.166999816894531,0 C-4.166999816894531,2.302000045776367 -2.3010001182556152,4.166999816894531 0,4.166999816894531z"></path></g></g><g transform="matrix(0.19716113805770874,0,0,0.19716113805770874,91.72554016113281,192.0803985595703)" opacity="1" style="display: block;"><g opacity="1" transform="matrix(1,0,0,1,20.83300018310547,145.83299255371094)"><path fill="rgb(217,189,248)" fill-opacity="1" d=" M0,4.166999816894531 C2.3010001182556152,4.166999816894531 4.166999816894531,2.3010001182556152 4.166999816894531,0 C4.166999816894531,-2.302000045776367 2.3010001182556152,-4.166999816894531 0,-4.166999816894531 C-2.302000045776367,-4.166999816894531 -4.166999816894531,-2.302000045776367 -4.166999816894531,0 C-4.166999816894531,2.3010001182556152 -2.302000045776367,4.166999816894531 0,4.166999816894531z"></path></g></g><g transform="matrix(0.22848151624202728,0,0,0.22848151624202728,123.22145080566406,187.51284790039062)" opacity="1" style="display: block;"><g opacity="1" transform="matrix(1,0,0,1,62.50199890136719,145.83299255371094)"><path fill="rgb(244,236,252)" fill-opacity="1" d=" M0,4.166999816894531 C2.3010001182556152,4.166999816894531 4.166999816894531,2.3010001182556152 4.166999816894531,0 C4.166999816894531,-2.302000045776367 2.3010001182556152,-4.166999816894531 0,-4.166999816894531 C-2.302000045776367,-4.166999816894531 -4.166999816894531,-2.302000045776367 -4.166999816894531,0 C-4.166999816894531,2.3010001182556152 -2.302000045776367,4.166999816894531 0,4.166999816894531z"></path></g></g><g transform="matrix(0.2179870456457138,0,0,0.2179870456457138,156.45994567871094,189.0432891845703)" opacity="1" style="display: block;"><g opacity="1" transform="matrix(1,0,0,1,104.16699981689453,145.83299255371094)"><path fill="rgb(211,181,247)" fill-opacity="1" d=" M0,4.166999816894531 C2.302000045776367,4.166999816894531 4.166999816894531,2.3010001182556152 4.166999816894531,0 C4.166999816894531,-2.302000045776367 2.302000045776367,-4.166999816894531 0,-4.166999816894531 C-2.3010001182556152,-4.166999816894531 -4.166999816894531,-2.302000045776367 -4.166999816894531,0 C-4.166999816894531,2.3010001182556152 -2.3010001182556152,4.166999816894531 0,4.166999816894531z"></path></g></g><g transform="matrix(0.17259109020233154,0,0,0.17259109020233154,195.66351318359375,195.66351318359375)" opacity="1" style="display: block;"><g opacity="1" transform="matrix(1,0,0,1,145.83299255371094,145.83299255371094)"><path fill="rgb(225,205,249)" fill-opacity="1" d=" M0,4.166999816894531 C2.3010001182556152,4.166999816894531 4.166999816894531,2.3010001182556152 4.166999816894531,0 C4.166999816894531,-2.302000045776367 2.3010001182556152,-4.166999816894531 0,-4.166999816894531 C-2.302000045776367,-4.166999816894531 -4.166999816894531,-2.302000045776367 -4.166999816894531,0 C-4.166999816894531,2.3010001182556152 -2.302000045776367,4.166999816894531 0,4.166999816894531z"></path></g></g><g transform="matrix(0.10426483303308487,0,0,0.10426483303308487,242.9512481689453,205.62774658203125)" opacity="1" style="display: block;"><g opacity="1" transform="matrix(1,0,0,1,187.50100708007812,145.83299255371094)"><path fill="rgb(234,220,250)" fill-opacity="1" d=" M0,4.166999816894531 C2.3010001182556152,4.166999816894531 4.168000221252441,2.3010001182556152 4.168000221252441,0 C4.168000221252441,-2.302000045776367 2.3010001182556152,-4.166999816894531 0,-4.166999816894531 C-2.302000045776367,-4.166999816894531 -4.168000221252441,-2.302000045776367 -4.168000221252441,0 C-4.168000221252441,2.3010001182556152 -2.302000045776367,4.166999816894531 0,4.166999816894531z"></path></g></g><g transform="matrix(0.02715834230184555,0,0,0.02715834230184555,297.9432067871094,216.87240600585938)" opacity="1" style="display: block;"><g opacity="1" transform="matrix(1,0,0,1,229.16700744628906,145.83299255371094)"><path fill="rgb(213,184,247)" fill-opacity="1" d=" M0,4.166999816894531 C2.302000045776367,4.166999816894531 4.166999816894531,2.3010001182556152 4.166999816894531,0 C4.166999816894531,-2.302000045776367 2.302000045776367,-4.166999816894531 0,-4.166999816894531 C-2.3010001182556152,-4.166999816894531 -4.166999816894531,-2.302000045776367 -4.166999816894531,0 C-4.166999816894531,2.3010001182556152 -2.3010001182556152,4.166999816894531 0,4.166999816894531z"></path></g></g><g transform="matrix(-0.044829387217760086,0,0,-0.044829387217760086,96.76692962646484,270.90655517578125)" opacity="1" style="display: block;"><g opacity="1" transform="matrix(1,0,0,1,20.83300018310547,187.50100708007812)"><path fill="rgb(219,193,248)" fill-opacity="1" d=" M0,4.168000221252441 C2.3010001182556152,4.168000221252441 4.166999816894531,2.3010001182556152 4.166999816894531,0 C4.166999816894531,-2.302000045776367 2.3010001182556152,-4.168000221252441 0,-4.168000221252441 C-2.302000045776367,-4.168000221252441 -4.166999816894531,-2.302000045776367 -4.166999816894531,0 C-4.166999816894531,2.3010001182556152 -2.302000045776367,4.168000221252441 0,4.168000221252441z"></path></g></g><g transform="matrix(-0.10039737820625305,0,0,-0.10039737820625305,143.77703857421875,281.32562255859375)" opacity="1" style="display: block;"><g opacity="1" transform="matrix(1,0,0,1,62.50199890136719,187.50100708007812)"><path fill="rgb(232,215,250)" fill-opacity="1" d=" M0,4.168000221252441 C2.3010001182556152,4.168000221252441 4.166999816894531,2.3010001182556152 4.166999816894531,0 C4.166999816894531,-2.302000045776367 2.3010001182556152,-4.168000221252441 0,-4.168000221252441 C-2.302000045776367,-4.168000221252441 -4.166999816894531,-2.302000045776367 -4.166999816894531,0 C-4.166999816894531,2.3010001182556152 -2.302000045776367,4.168000221252441 0,4.168000221252441z"></path></g></g><g transform="matrix(-0.13237887620925903,0,0,-0.13237887620925903,192.95651245117188,287.3221740722656)" opacity="1" style="display: block;"><g opacity="1" transform="matrix(1,0,0,1,104.16699981689453,187.50100708007812)"><path fill="rgb(222,197,248)" fill-opacity="1" d=" M0,4.168000221252441 C2.302000045776367,4.168000221252441 4.166999816894531,2.3010001182556152 4.166999816894531,0 C4.166999816894531,-2.302000045776367 2.302000045776367,-4.168000221252441 0,-4.168000221252441 C-2.3010001182556152,-4.168000221252441 -4.166999816894531,-2.302000045776367 -4.166999816894531,0 C-4.166999816894531,2.3010001182556152 -2.3010001182556152,4.168000221252441 0,4.168000221252441z"></path></g></g><g transform="matrix(-0.13837508857250214,0,0,-0.13837508857250214,241.0126495361328,288.44647216796875)" opacity="1" style="display: block;"><g opacity="1" transform="matrix(1,0,0,1,145.83299255371094,187.50100708007812)"><path fill="rgb(223,200,248)" fill-opacity="1" d=" M0,4.168000221252441 C2.3010001182556152,4.168000221252441 4.166999816894531,2.3010001182556152 4.166999816894531,0 C4.166999816894531,-2.302000045776367 2.3010001182556152,-4.168000221252441 0,-4.168000221252441 C-2.302000045776367,-4.168000221252441 -4.166999816894531,-2.302000045776367 -4.166999816894531,0 C-4.166999816894531,2.3010001182556152 -2.302000045776367,4.168000221252441 0,4.168000221252441z"></path></g></g><g transform="matrix(-0.12069222331047058,0,0,-0.12069222331047058,285.13092041015625,285.13092041015625)" opacity="1" style="display: block;"><g opacity="1" transform="matrix(1,0,0,1,187.50100708007812,187.50100708007812)"><path fill="rgb(214,185,248)" fill-opacity="1" d=" M0,4.168000221252441 C2.3010001182556152,4.168000221252441 4.168000221252441,2.3010001182556152 4.168000221252441,0 C4.168000221252441,-2.302000045776367 2.3010001182556152,-4.168000221252441 0,-4.168000221252441 C-2.302000045776367,-4.168000221252441 -4.168000221252441,-2.302000045776367 -4.168000221252441,0 C-4.168000221252441,2.3010001182556152 -2.302000045776367,4.168000221252441 0,4.168000221252441z"></path></g></g><g transform="matrix(-0.08518895506858826,0,0,-0.08518895506858826,323.6894836425781,278.4740295410156)" opacity="1" style="display: block;"><g opacity="1" transform="matrix(1,0,0,1,229.16700744628906,187.50100708007812)"><path fill="rgb(247,241,253)" fill-opacity="1" d=" M0,4.168000221252441 C2.302000045776367,4.168000221252441 4.166999816894531,2.3010001182556152 4.166999816894531,0 C4.166999816894531,-2.302000045776367 2.302000045776367,-4.168000221252441 0,-4.168000221252441 C-2.3010001182556152,-4.168000221252441 -4.166999816894531,-2.302000045776367 -4.166999816894531,0 C-4.166999816894531,2.3010001182556152 -2.3010001182556152,4.168000221252441 0,4.168000221252441z"></path></g></g><g transform="matrix(-0.039968233555555344,0,0,-0.039968233555555344,96.66565704345703,313.3263854980469)" opacity="1" style="display: block;"><g opacity="1" transform="matrix(1,0,0,1,20.83300018310547,229.16700744628906)"><path fill="rgb(208,173,246)" fill-opacity="1" d=" M0,4.166999816894531 C2.3010001182556152,4.166999816894531 4.166999816894531,2.302000045776367 4.166999816894531,0 C4.166999816894531,-2.3010001182556152 2.3010001182556152,-4.166999816894531 0,-4.166999816894531 C-2.302000045776367,-4.166999816894531 -4.166999816894531,-2.3010001182556152 -4.166999816894531,0 C-4.166999816894531,2.302000045776367 -2.302000045776367,4.166999816894531 0,4.166999816894531z"></path></g></g><g transform="matrix(0.0062276930548250675,0,0,0.0062276930548250675,137.11276245117188,302.73980712890625)" opacity="1" style="display: block;"><g opacity="1" transform="matrix(1,0,0,1,62.50199890136719,229.16700744628906)"><path fill="rgb(218,193,248)" fill-opacity="1" d=" M0,4.166999816894531 C2.3010001182556152,4.166999816894531 4.166999816894531,2.302000045776367 4.166999816894531,0 C4.166999816894531,-2.3010001182556152 2.3010001182556152,-4.166999816894531 0,-4.166999816894531 C-2.302000045776367,-4.166999816894531 -4.166999816894531,-2.3010001182556152 -4.166999816894531,0 C-4.166999816894531,2.302000045776367 -2.302000045776367,4.166999816894531 0,4.166999816894531z"></path></g></g><g transform="matrix(0.0456303171813488,0,0,0.0456303171813488,174.41383361816406,293.71002197265625)" opacity="1" style="display: block;"><g opacity="1" transform="matrix(1,0,0,1,104.16699981689453,229.16700744628906)"><path fill="rgb(235,223,251)" fill-opacity="1" d=" M0,4.166999816894531 C2.302000045776367,4.166999816894531 4.166999816894531,2.302000045776367 4.166999816894531,0 C4.166999816894531,-2.3010001182556152 2.302000045776367,-4.166999816894531 0,-4.166999816894531 C-2.3010001182556152,-4.166999816894531 -4.166999816894531,-2.3010001182556152 -4.166999816894531,0 C-4.166999816894531,2.302000045776367 -2.3010001182556152,4.166999816894531 0,4.166999816894531z"></path></g></g><g transform="matrix(0.07253153622150421,0,0,0.07253153622150421,210.25550842285156,287.545166015625)" opacity="1" style="display: block;"><g opacity="1" transform="matrix(1,0,0,1,145.83299255371094,229.16700744628906)"><path fill="rgb(213,184,247)" fill-opacity="1" d=" M0,4.166999816894531 C2.3010001182556152,4.166999816894531 4.166999816894531,2.302000045776367 4.166999816894531,0 C4.166999816894531,-2.3010001182556152 2.3010001182556152,-4.166999816894531 0,-4.166999816894531 C-2.302000045776367,-4.166999816894531 -4.166999816894531,-2.3010001182556152 -4.166999816894531,0 C-4.166999816894531,2.302000045776367 -2.302000045776367,4.166999816894531 0,4.166999816894531z"></path></g></g><g transform="matrix(0.0840536504983902,0,0,0.0840536504983902,246.74085998535156,284.9046630859375)" opacity="1" style="display: block;"><g opacity="1" transform="matrix(1,0,0,1,187.50100708007812,229.16700744628906)"><path fill="rgb(220,195,248)" fill-opacity="1" d=" M0,4.166999816894531 C2.3010001182556152,4.166999816894531 4.168000221252441,2.302000045776367 4.168000221252441,0 C4.168000221252441,-2.3010001182556152 2.3010001182556152,-4.166999816894531 0,-4.166999816894531 C-2.302000045776367,-4.166999816894531 -4.168000221252441,-2.3010001182556152 -4.168000221252441,0 C-4.168000221252441,2.302000045776367 -2.302000045776367,4.166999816894531 0,4.166999816894531z"></path></g></g><g transform="matrix(0.0801929458975792,0,0,0.0801929458975792,285.7894287109375,285.7894287109375)" opacity="1" style="display: block;"><g opacity="1" transform="matrix(1,0,0,1,229.16700744628906,229.16700744628906)"><path fill="rgb(253,252,255)" fill-opacity="1" d=" M0,4.166999816894531 C2.302000045776367,4.166999816894531 4.166999816894531,2.302000045776367 4.166999816894531,0 C4.166999816894531,-2.3010001182556152 2.302000045776367,-4.166999816894531 0,-4.166999816894531 C-2.3010001182556152,-4.166999816894531 -4.166999816894531,-2.3010001182556152 -4.166999816894531,0 C-4.166999816894531,2.302000045776367 -2.3010001182556152,4.166999816894531 0,4.166999816894531z"></path></g></g></g><g transform="matrix(1,0,0,1,-247,-340)" opacity="1" style="display: none;"><g opacity="1" transform="matrix(1,0,0,1,540,540)"><path fill="url(#__lottie_element_30)" fill-opacity="1" d=" M161.7289581298828,-69.8122329711914 C64.49701690673828,-72.50404357910156 -20.5030517578125,131.99574279785156 -160.97801208496094,131.56776428222656 C-202.7498016357422,133.49563598632812 -261.99786376953125,97.24597930908203 -262.0478820800781,30.497909545898438 C-260.761962890625,-40.77484893798828 -199.99998474121094,-70.99991607666016 -161.22799682617188,-69.8219985961914 C-216.83799743652344,-69.8219985961914 -261.91900634765625,-24.740999221801758 -261.91900634765625,30.868000030517578 C-261.91900634765625,86.47799682617188 -216.83799743652344,131.55799865722656 -161.22799682617188,131.55799865722656 C-20.535999298095703,131.55799865722656 61.547000885009766,-69.8219985961914 161.22900390625,-69.8219985961914 C199.79100036621094,-69.8219985961914 231.05099487304688,-38.56100082397461 231.05099487304688,0 C231.05099487304688,38.5620002746582 199.79100036621094,69.8219985961914 161.22900390625,69.8219985961914 C199.001220703125,69.25003814697266 231.0021209716797,39.74897003173828 231.17111206054688,0.1298755705356598 C231.31309509277344,-33.25364685058594 206.2527313232422,-68.57931518554688 161.7289581298828,-69.8122329711914z"></path></g></g><g transform="matrix(1,0,0,1,-247,-340)" opacity="1" style="display: block;"><g opacity="1" transform="matrix(1,0,0,1,540,540)"><path fill="url(#__lottie_element_26)" fill-opacity="1" d=" M161.51596069335938,-96.1178970336914 C45.96377182006836,-97.66291809082031 -39.47295379638672,105.50774383544922 -161.0845184326172,105.26210021972656 C-201.48883056640625,106.36863708496094 -248.81309509277344,72.2447280883789 -248.841796875,17.50482749938965 C-248.1037139892578,-39.8316764831543 -199.9105224609375,-70.49808502197266 -161.22799682617188,-69.8219985961914 C-216.83799743652344,-69.8219985961914 -261.91900634765625,-24.740999221801758 -261.91900634765625,30.868000030517578 C-261.91900634765625,86.47799682617188 -216.83799743652344,131.55799865722656 -161.22799682617188,131.55799865722656 C-20.535999298095703,131.55799865722656 61.547000885009766,-69.8219985961914 161.22900390625,-69.8219985961914 C199.79100036621094,-69.8219985961914 231.05099487304688,-38.56100082397461 231.05099487304688,0 C231.05099487304688,38.5620002746582 199.79100036621094,69.8219985961914 161.22900390625,69.8219985961914 C206.60067749023438,69.49371337890625 244.17369079589844,33.35552215576172 244.27069091796875,-13.076208114624023 C244.35218811035156,-55.92892074584961 210.7628173828125,-95.41024780273438 161.51596069335938,-96.1178970336914z"></path></g></g><g style="display: block;" transform="matrix(1,0,0,1,-247,-340)" opacity="1"><g opacity="1" transform="matrix(1,0,0,1,540,540)"><path fill="url(#__lottie_element_22)" fill-opacity="1" d=" M161.22900390625,-131.55799865722656 C22.069366455078125,-132.14601135253906 -65.89378356933594,70.00387573242188 -160.95974731445312,69.8890609741211 C-199.52174377441406,69.84077453613281 -231.0500030517578,38.5620002746582 -231.0500030517578,0 C-231.0500030517578,-38.56100082397461 -199.7899932861328,-69.8219985961914 -161.22799682617188,-69.8219985961914 C-212.25404357910156,-69.80268859863281 -253.6918487548828,-28.431936264038086 -253.60305786132812,22.552061080932617 C-253.79244995117188,72.568115234375 -213.25999450683594,115.04469299316406 -160.95974731445312,115.06024932861328 C-34.34153366088867,115.84945678710938 52.48074722290039,-87.37345886230469 161.22900390625,-86.3868179321289 C208.1630096435547,-86.03218078613281 239.75564575195312,-47.061767578125 239.366943359375,-8.248875617980957 C238.80870056152344,35.184654235839844 204.34036254882812,69.8697509765625 161.22900390625,69.8219985961914 C216.83900451660156,69.8219985961914 261.91900634765625,24.742000579833984 261.91900634765625,-30.868000030517578 C261.91900634765625,-86.47799682617188 216.83712768554688,-131.3179168701172 161.22900390625,-131.55799865722656z"></path></g></g><g transform="matrix(1,0,0,1,-247,-340)" opacity="1" style="display: none;"><g opacity="1" transform="matrix(1,0,0,1,540,540)"><path fill="url(#__lottie_element_18)" fill-opacity="1" d=" M-161.22900390625,-131.55799865722656 C-20.9950008392334,-131.55799865722656 65.02999877929688,69.8219985961914 161.22799682617188,69.8219985961914 C216.83799743652344,69.8219985961914 261.9179992675781,24.742000579833984 261.9179992675781,-30.868000030517578 C261.9179992675781,-86.47799682617188 216.83799743652344,-131.55799865722656 161.22799682617188,-131.55799865722656 C217.7510986328125,-129.25015258789062 261.50213623046875,-89.74882507324219 262.2890930175781,-30.997875213623047 C262.8320617675781,9.501328468322754 231.0001983642578,68.50431823730469 161.22799682617188,69.56224822998047 C62.747108459472656,69.2542724609375 -8.003669738769531,-122.99635314941406 -161.22900390625,-131.8177490234375 C-248.49783325195312,-131.4957733154297 -294.1138000488281,-55.22591018676758 -292.9168701171875,0.37009015679359436 C-290.9980163574219,89.49979400634766 -216.83900451660156,131.55799865722656 -161.22900390625,131.55799865722656 C-233.88699340820312,131.55799865722656 -292.7869873046875,72.65799713134766 -292.7869873046875,0 C-292.7869873046875,-72.65699768066406 -233.88699340820312,-131.55799865722656 -161.22900390625,-131.55799865722656z"></path></g></g><g transform="matrix(1,0,0,1,-247,-340)" opacity="1" style="display: block;"><g opacity="1" transform="matrix(1,0,0,1,540,540)"><path fill="url(#__lottie_element_14)" fill-opacity="1" d=" M-161.22900390625,-131.55799865722656 C-20.9950008392334,-131.55799865722656 65.02999877929688,69.8219985961914 161.22799682617188,69.8219985961914 C216.83799743652344,69.8219985961914 261.9179992675781,24.742000579833984 261.9179992675781,-30.868000030517578 C261.9179992675781,-86.47799682617188 216.83799743652344,-131.55799865722656 161.22799682617188,-131.55799865722656 C224.62509155273438,-130.23336791992188 274.83050537109375,-82.4671630859375 275.28216552734375,-17.791791915893555 C275.59381103515625,36.408084869384766 232.22964477539062,95.36720275878906 161.22799682617188,95.97441864013672 C44.76340103149414,95.79764556884766 -30.815263748168945,-100.3423843383789 -161.22900390625,-105.40558624267578 C-235.01016235351562,-105.22077941894531 -280.3977966308594,-42.238365173339844 -279.7107849121094,13.36317253112793 C-278.60943603515625,88.21240997314453 -216.83900451660156,131.55799865722656 -161.22900390625,131.55799865722656 C-233.88699340820312,131.55799865722656 -292.7869873046875,72.65799713134766 -292.7869873046875,0 C-292.7869873046875,-72.65699768066406 -233.88699340820312,-131.55799865722656 -161.22900390625,-131.55799865722656z"></path></g></g><g style="display: block;" transform="matrix(1,0,0,1,-247,-340)" opacity="1"><g opacity="1" transform="matrix(1,0,0,1,540,540)"><path fill="url(#__lottie_element_10)" fill-opacity="1" d=" M-161.22900390625,-115.19437408447266 C-31.458330154418945,-114.23992156982422 53.88932418823242,86.63575744628906 161.22799682617188,86.4538803100586 C225.4656524658203,86.2333755493164 270.5242004394531,32.92595672607422 270.23394775390625,-22.552061080932617 C269.9412841796875,-78.15911102294922 226.13629150390625,-130.87179565429688 161.22799682617188,-131.55799865722656 C233.88600158691406,-131.55799865722656 292.5758972167969,-72.2125015258789 292.7869873046875,0 C293.0029602050781,72.65666198730469 233.88600158691406,131.55799865722656 161.22799682617188,131.55799865722656 C20.53499984741211,131.55799865722656 -61.54800033569336,-69.8219985961914 -161.22900390625,-69.8219985961914 C-216.83900451660156,-69.8219985961914 -261.91900634765625,-24.740999221801758 -261.91900634765625,30.868000030517578 C-261.91900634765625,86.47799682617188 -216.83900451660156,131.55799865722656 -161.22900390625,131.55799865722656 C-229.35696411132812,131.34124755859375 -284.10516357421875,77.37662506103516 -284.4710693359375,7.7794270515441895 C-284.7294006347656,-56.98896408081055 -231.8383331298828,-114.64230346679688 -161.22900390625,-115.19437408447266z"></path></g></g></g></svg>