<svg xmlns="http://www.w3.org/2000/svg" viewBox="0 0 3000 3000" width="3000" height="3000" preserveAspectRatio="xMidYMid meet" style="width: 100%; height: 100%; transform: translate3d(0px, 0px, 0px); content-visibility: visible;"><defs><clipPath id="__lottie_element_204"><rect width="3000" height="3000" x="0" y="0"></rect></clipPath><linearGradient id="__lottie_element_208" spreadMethod="pad" gradientUnits="userSpaceOnUse" x1="48.417999267578125" y1="-163.99000549316406" x2="-3.4149999618530273" y2="-9.854000091552734"><stop offset="0%" stop-color="rgb(68,75,140)"></stop><stop offset="50%" stop-color="rgb(53,57,109)"></stop><stop offset="100%" stop-color="rgb(38,38,79)"></stop></linearGradient><linearGradient id="__lottie_element_209" spreadMethod="pad" gradientUnits="userSpaceOnUse" x1="-161.0919952392578" y1="105.95600128173828" x2="38.64099884033203" y2="-47.87699890136719"><stop offset="0%" stop-color="rgb(49,25,68)"></stop><stop offset="50%" stop-color="rgb(105,41,93)"></stop><stop offset="100%" stop-color="rgb(160,57,118)"></stop></linearGradient><linearGradient id="__lottie_element_213" spreadMethod="pad" gradientUnits="userSpaceOnUse" x1="178.47500610351562" y1="134.5050048828125" x2="-114.79299926757812" y2="-86.46800231933594"><stop offset="0%" stop-color="rgb(68,75,140)"></stop><stop offset="50%" stop-color="rgb(53,57,109)"></stop><stop offset="100%" stop-color="rgb(38,38,79)"></stop></linearGradient><linearGradient id="__lottie_element_214" spreadMethod="pad" gradientUnits="userSpaceOnUse" x1="1663.239013671875" y1="-87.5780029296875" x2="1523.7869873046875" y2="-339.0150146484375"><stop offset="0%" stop-color="rgb(68,75,140)"></stop><stop offset="50%" stop-color="rgb(53,57,109)"></stop><stop offset="100%" stop-color="rgb(38,38,79)"></stop></linearGradient><linearGradient id="__lottie_element_215" spreadMethod="pad" gradientUnits="userSpaceOnUse" x1="-87.33799743652344" y1="-182.43800354003906" x2="129.75" y2="343.21600341796875"><stop offset="0%" stop-color="rgb(68,75,140)"></stop><stop offset="50%" stop-color="rgb(53,57,109)"></stop><stop offset="100%" stop-color="rgb(38,38,79)"></stop></linearGradient><linearGradient id="__lottie_element_216" spreadMethod="pad" gradientUnits="userSpaceOnUse" x1="1715.301025390625" y1="-0.8100000023841858" x2="1621.9990234375" y2="-0.8100000023841858"><stop offset="0%" stop-color="rgb(49,25,68)"></stop><stop offset="50%" stop-color="rgb(105,41,93)"></stop><stop offset="100%" stop-color="rgb(160,57,118)"></stop></linearGradient><linearGradient id="__lottie_element_220" spreadMethod="pad" gradientUnits="userSpaceOnUse" x1="-60.36899948120117" y1="-24.586999893188477" x2="-198.5290069580078" y2="39.645999908447266"><stop offset="0%" stop-color="rgb(255,196,68)"></stop><stop offset="50%" stop-color="rgb(249,154,77)"></stop><stop offset="100%" stop-color="rgb(243,111,86)"></stop></linearGradient><linearGradient id="__lottie_element_225" spreadMethod="pad" gradientUnits="userSpaceOnUse" x1="1759.4739990234375" y1="-0.7139999866485596" x2="1220.16796875" y2="-0.7139999866485596"><stop offset="0%" stop-color="rgb(68,75,140)"></stop><stop offset="50%" stop-color="rgb(65,70,130)"></stop><stop offset="100%" stop-color="rgb(62,65,119)"></stop></linearGradient><linearGradient id="__lottie_element_226" spreadMethod="pad" gradientUnits="userSpaceOnUse" x1="-31.441999435424805" y1="-45.17900085449219" x2="40.310001373291016" y2="20.900999069213867"><stop offset="0%" stop-color="rgb(68,75,140)"></stop><stop offset="50%" stop-color="rgb(53,57,109)"></stop><stop offset="100%" stop-color="rgb(38,38,79)"></stop></linearGradient><linearGradient id="__lottie_element_227" spreadMethod="pad" gradientUnits="userSpaceOnUse" x1="-31.441999435424805" y1="-45.17900085449219" x2="40.310001373291016" y2="20.900999069213867"><stop offset="0%" stop-color="rgb(68,75,140)"></stop><stop offset="50%" stop-color="rgb(53,57,109)"></stop><stop offset="100%" stop-color="rgb(38,38,79)"></stop></linearGradient><linearGradient id="__lottie_element_228" spreadMethod="pad" gradientUnits="userSpaceOnUse" x1="1339.31298828125" y1="-288.40301513671875" x2="1409.718017578125" y2="-729.197021484375"><stop offset="0%" stop-color="rgb(49,25,68)"></stop><stop offset="50%" stop-color="rgb(105,41,93)"></stop><stop offset="100%" stop-color="rgb(160,57,118)"></stop></linearGradient><linearGradient id="__lottie_element_229" spreadMethod="pad" gradientUnits="userSpaceOnUse" x1="1741.5400390625" y1="-0.753000020980835" x2="1202.237060546875" y2="-0.753000020980835"><stop offset="0%" stop-color="rgb(68,75,140)"></stop><stop offset="50%" stop-color="rgb(65,70,130)"></stop><stop offset="100%" stop-color="rgb(62,65,119)"></stop></linearGradient><linearGradient id="__lottie_element_230" spreadMethod="pad" gradientUnits="userSpaceOnUse" x1="1200.7120361328125" y1="-0.35499998927116394" x2="739.5789794921875" y2="-0.35499998927116394"><stop offset="0%" stop-color="rgb(68,75,140)"></stop><stop offset="50%" stop-color="rgb(65,70,130)"></stop><stop offset="100%" stop-color="rgb(62,65,119)"></stop></linearGradient><linearGradient id="__lottie_element_231" spreadMethod="pad" gradientUnits="userSpaceOnUse" x1="-0.746999979019165" y1="-438.9440002441406" x2="-234.06199645996094" y2="451.4939880371094"><stop offset="0%" stop-color="rgb(255,196,68)"></stop><stop offset="50%" stop-color="rgb(249,154,77)"></stop><stop offset="100%" stop-color="rgb(243,111,86)"></stop></linearGradient><linearGradient id="__lottie_element_232" spreadMethod="pad" gradientUnits="userSpaceOnUse" x1="3.749000072479248" y1="-370.593994140625" x2="-70.02100372314453" y2="336.09698486328125"><stop offset="0%" stop-color="rgb(255,196,68)"></stop><stop offset="50%" stop-color="rgb(249,154,77)"></stop><stop offset="100%" stop-color="rgb(243,111,86)"></stop></linearGradient><linearGradient id="__lottie_element_233" spreadMethod="pad" gradientUnits="userSpaceOnUse" x1="22.06399917602539" y1="-63.38800048828125" x2="-91.89800262451172" y2="52.310001373291016"><stop offset="0%" stop-color="rgb(49,25,68)"></stop><stop offset="50%" stop-color="rgb(105,41,93)"></stop><stop offset="100%" stop-color="rgb(160,57,118)"></stop></linearGradient><linearGradient id="__lottie_element_236" spreadMethod="pad" gradientUnits="userSpaceOnUse" x1="101.81099700927734" y1="76.73699951171875" x2="-557.1799926757812" y2="-191.33599853515625"><stop offset="0%" stop-color="rgb(255,196,68)"></stop><stop offset="75%" stop-color="rgb(249,154,77)"></stop><stop offset="100%" stop-color="rgb(243,111,86)"></stop></linearGradient><linearGradient id="__lottie_element_240" spreadMethod="pad" gradientUnits="userSpaceOnUse" x1="-118.33100128173828" y1="8.267000198364258" x2="-573.1190185546875" y2="-536.656005859375"><stop offset="0%" stop-color="rgb(255,196,68)"></stop><stop offset="75%" stop-color="rgb(249,154,77)"></stop><stop offset="100%" stop-color="rgb(243,111,86)"></stop></linearGradient><linearGradient id="__lottie_element_244" spreadMethod="pad" gradientUnits="userSpaceOnUse" x1="-66.94400024414062" y1="-106.85399627685547" x2="14.89900016784668" y2="31.368999481201172"><stop offset="0%" stop-color="rgb(49,25,68)"></stop><stop offset="50%" stop-color="rgb(105,41,93)"></stop><stop offset="100%" stop-color="rgb(160,57,118)"></stop></linearGradient><mask id="__lottie_element_248" mask-type="alpha"><g transform="matrix(1,0,0,1,0,0)" opacity="1" style="display: block;"><g opacity="1" transform="matrix(1,0,0,1,0,0)"><g opacity="1" transform="matrix(1,0,0,1,1407.8690185546875,1559.6409912109375)"><path fill="url(#__lottie_element_251)" fill-opacity="1" d=" M625.6900024414062,-1104.116943359375 C625.6900024414062,-1104.116943359375 625.6900024414062,1101.4339599609375 625.6900024414062,1101.4339599609375 C625.6900024414062,1134.675048828125 599.3599853515625,1162.698974609375 567.1309814453125,1163.7110595703125 C567.1309814453125,1163.7110595703125 -547.4459838867188,1143.22705078125 -547.4459838867188,1143.22705078125 C-581.656005859375,1144.302001953125 -609.6900024414062,1117.0999755859375 -609.6900024414062,1082.7760009765625 C-609.6900024414062,1082.7760009765625 -625.6900024414062,-1138.6400146484375 -625.6900024414062,-1138.6400146484375 C-625.6900024414062,-1172.9639892578125 -597.656005859375,-1200.22900390625 -563.4459838867188,-1199.23095703125 C-563.4459838867188,-1199.23095703125 567.1309814453125,-1166.261962890625 567.1309814453125,-1166.261962890625 C599.3599853515625,-1165.322021484375 625.6900024414062,-1137.3570556640625 625.6900024414062,-1104.116943359375z"></path></g></g></g></mask><linearGradient id="__lottie_element_251" spreadMethod="pad" gradientUnits="userSpaceOnUse" x1="-625.8690185546875" y1="-0.640999972820282" x2="625.510009765625" y2="-0.640999972820282"><stop offset="0%" stop-color="rgb(255,144,133)"></stop><stop offset="50%" stop-color="rgb(253,128,160)"></stop><stop offset="100%" stop-color="rgb(251,111,187)"></stop></linearGradient><linearGradient id="__lottie_element_258" spreadMethod="pad" gradientUnits="userSpaceOnUse" x1="943.291015625" y1="832.947998046875" x2="-195.9969940185547" y2="-138.91799926757812"><stop offset="0%" stop-color="rgb(68,75,140)"></stop><stop offset="50%" stop-color="rgb(53,57,109)"></stop><stop offset="100%" stop-color="rgb(38,38,79)"></stop></linearGradient><linearGradient id="__lottie_element_259" spreadMethod="pad" gradientUnits="userSpaceOnUse" x1="1235.947998046875" y1="3071.5380859375" x2="1392.1199951171875" y2="-1126.7459716796875"><stop offset="0%" stop-color="rgb(68,75,140)"></stop><stop offset="50%" stop-color="rgb(53,57,109)"></stop><stop offset="100%" stop-color="rgb(38,38,79)"></stop></linearGradient><linearGradient id="__lottie_element_260" spreadMethod="pad" gradientUnits="userSpaceOnUse" x1="-625.8690185546875" y1="-0.640999972820282" x2="625.510009765625" y2="-0.640999972820282"><stop offset="0%" stop-color="rgb(255,144,133)"></stop><stop offset="50%" stop-color="rgb(253,128,160)"></stop><stop offset="100%" stop-color="rgb(251,111,187)"></stop></linearGradient><clipPath id="__lottie_element_262"><path fill="#ffffff" clip-rule="nonzero" d=" M808.6820068359375,2174.48193359375 C808.6820068359375,2174.48193359375 1034.8079833984375,2179.614013671875 1034.8079833984375,2179.614013671875 C1048.70703125,2147.903076171875 1066.866943359375,2089.23193359375 1019.8880004882812,2073.60205078125 C954.572998046875,2051.87109375 956.5180053710938,1935.887939453125 975.8410034179688,1895.426025390625 C999.7570190429688,1845.3470458984375 1053.051025390625,1727.594970703125 952.6060180664062,1692.4119873046875 C868.9860229492188,1663.1219482421875 809.0399780273438,1661.31201171875 806.448974609375,1552.4169921875 C803.8579711914062,1443.52197265625 746.5910034179688,1373.8819580078125 647.7999877929688,1377.3349609375 C543.8380126953125,1380.968994140625 462.9779968261719,1240.259033203125 376.5639953613281,1283.8580322265625 C225.9929962158203,1359.8260498046875 352.8580017089844,1603.501953125 530.864990234375,1678.4119873046875 C708.8720092773438,1753.322021484375 603.5640258789062,1815.072021484375 595.9860229492188,1903.8909912109375 C585.6409912109375,2025.14794921875 750.6370239257812,2004.2149658203125 792.552001953125,2053.257080078125 C825.4110107421875,2091.702880859375 817.5260009765625,2143.126953125 808.6820068359375,2174.48193359375" fill-opacity="1"></path></clipPath><linearGradient id="__lottie_element_264" spreadMethod="pad" gradientUnits="userSpaceOnUse" x1="-354.802001953125" y1="-163.08200073242188" x2="260.4110107421875" y2="289.1080017089844"><stop offset="0%" stop-color="rgb(255,196,68)"></stop><stop offset="50%" stop-color="rgb(249,154,77)"></stop><stop offset="100%" stop-color="rgb(243,111,86)"></stop></linearGradient><clipPath id="__lottie_element_266"><path fill="#ffffff" clip-rule="nonzero" d=" M-464.9649963378906,548.9509887695312 C-464.9649963378906,548.9509887695312 -696.8880004882812,621.6439819335938 -696.8880004882812,621.6439819335938 C-696.8880004882812,621.6439819335938 -777.8359985351562,516.3579711914062 -747.3170166015625,414.5820007324219 C-685.0499877929688,206.9290008544922 -871.2650146484375,166.88699340820312 -946.75,138.447998046875 C-1060.5880126953125,95.55899810791016 -1142.2010498046875,8.116999626159668 -1021.8350219726562,-78.81500244140625 C-901.468994140625,-165.7469940185547 -1101.8299560546875,-331.7179870605469 -1295.6600341796875,-374.4859924316406 C-1485.3360595703125,-416.3380126953125 -1520.3900146484375,-777.6589965820312 -1101.541015625,-724.77099609375 C-851.406005859375,-693.1859741210938 -812.9739990234375,-450.5249938964844 -764.4329833984375,-332.59698486328125 C-715.8920288085938,-214.66900634765625 -532.4439697265625,-261.15399169921875 -547.7319946289062,-93.71399688720703 C-560.791015625,49.310001373291016 -632.0260009765625,172.9429931640625 -528.3369750976562,235.95799255371094 C-424.64801025390625,298.9729919433594 -386.177001953125,394.00799560546875 -464.9649963378906,548.9509887695312" fill-opacity="1"></path></clipPath><linearGradient id="__lottie_element_268" spreadMethod="pad" gradientUnits="userSpaceOnUse" x1="-1336.0040283203125" y1="-726.1669921875" x2="-213.7169952392578" y2="293.8630065917969"><stop offset="0%" stop-color="rgb(227,141,221)"></stop><stop offset="50%" stop-color="rgb(188,127,234)"></stop><stop offset="100%" stop-color="rgb(149,113,246)"></stop></linearGradient><clipPath id="__lottie_element_270"><path fill="#ffffff" clip-rule="nonzero" d=" M777.125,1750.2120361328125 C777.125,1750.2120361328125 971.5280151367188,1700.1400146484375 971.5280151367188,1700.1400146484375 C971.5280151367188,1700.1400146484375 1021.5999755859375,1554.510986328125 949.739013671875,1515.696044921875 C877.8779907226562,1476.8809814453125 905.3930053710938,1337.031982421875 911.4169921875,1260.760009765625 C927.7630004882812,1053.81494140625 704.1290283203125,1072.625 703.8779907226562,805.0150146484375 C703.8109741210938,733.8389892578125 727.4840087890625,598.0789794921875 667.4749755859375,541.3880004882812 C599.1079711914062,476.8009948730469 549.198974609375,540.1589965820312 505.239990234375,486.14898681640625 C436.53399658203125,401.7330017089844 325.0409851074219,371.45098876953125 258.5830078125,458.32598876953125 C192.99099731445312,544.0679931640625 272.69000244140625,714.7479858398438 470.8190002441406,851.9290161132812 C601.8099975585938,966.4450073242188 603.8569946289062,1000.72802734375 593.5469970703125,1084.2149658203125 C586.3259887695312,1142.6929931640625 530.5440063476562,1295.030029296875 609.9190063476562,1355.8599853515625 C689.2940063476562,1416.68994140625 749.958984375,1482.4229736328125 719.3779907226562,1548.4659423828125 C672.8460083007812,1648.958984375 777.125,1750.2120361328125 777.125,1750.2120361328125" fill-opacity="1"></path></clipPath><linearGradient id="__lottie_element_272" spreadMethod="pad" gradientUnits="userSpaceOnUse" x1="-608.0139770507812" y1="-713.1099853515625" x2="96.19499969482422" y2="828.6010131835938"><stop offset="0%" stop-color="rgb(170,128,249)"></stop><stop offset="50%" stop-color="rgb(134,114,232)"></stop><stop offset="100%" stop-color="rgb(97,101,215)"></stop></linearGradient></defs><g clip-path="url(#__lottie_element_204)"><g transform="matrix(1,0,0,1,1483.738037109375,1530.1180419921875)" opacity="1" style="display: block;"><g opacity="1" transform="matrix(1,0,0,1,0,0)"><path fill="rgb(244,247,250)" fill-opacity="1" d=" M1092.968994140625,1029.7640380859375 C1018.041015625,1106.9969482421875 950.9979858398438,1152.39794921875 899.6669921875,1186.6719970703125 C399.0509948730469,1520.93798828125 -173.20700073242188,1424.593994140625 -350.135009765625,1391.6639404296875 C-635.5869750976562,1338.5350341796875 -876.5479736328125,1301.0560302734375 -1083.5760498046875,1114.0140380859375 C-1554.0069580078125,688.9979858398438 -1531.126953125,-197.61599731445312 -1171.6600341796875,-746.8350219726562 C-1129.0379638671875,-811.9569702148438 -770.114990234375,-1343.991943359375 -196.6179962158203,-1418.9599609375 C-182.59100341796875,-1420.79296875 -172.125,-1421.8380126953125 -162.95799255371094,-1422.8079833984375 C-74.23899841308594,-1432.2010498046875 475.5329895019531,-1481.7779541015625 923.8170166015625,-1106.2049560546875 C987.9869995117188,-1052.4439697265625 1091.2550048828125,-955.4719848632812 1187.0169677734375,-807.573974609375 C1537.1689453125,-266.7929992675781 1538.2779541015625,570.7570190429688 1092.968994140625,1029.7640380859375z"></path></g></g><g clip-path="url(#__lottie_element_270)" transform="matrix(0.9999386668205261,-0.011073784902691841,0.011073784902691841,0.9999386668205261,-21.20843505859375,25.701904296875)" opacity="1" style="display: block;"><g opacity="1" transform="matrix(1,0,0,1,613.1320190429688,1061.2650146484375)"><path fill="url(#__lottie_element_272)" fill-opacity="1" d=" M106.24600219726562,487.20098876953125 C79.49500274658203,544.9719848632812 104.98899841308594,602.760986328125 129.45599365234375,641.6530151367188 C135.29100036621094,641.68798828125 138.67999267578125,643.3079833984375 144.5760040283203,644.7420043945312 C197.78700256347656,657.68701171875 222.7429962158203,651.0999755859375 276.8380126953125,655.0150146484375 C288.4809875488281,655.8579711914062 323.07000732421875,647.1810302734375 336.9670104980469,642.655029296875 C336.9670104980469,642.655029296875 362.7359924316406,633.7680053710938 362.7359924316406,633.7680053710938 C362.7359924316406,633.7680053710938 408.4670104980469,493.2460021972656 336.6059875488281,454.4309997558594 C264.7449951171875,415.6159973144531 292.260009765625,275.7659912109375 298.2850036621094,199.4949951171875 C314.6310119628906,-7.449999809265137 90.99700164794922,11.359999656677246 90.74600219726562,-256.25 C90.67900085449219,-327.4259948730469 114.35199737548828,-463.18499755859375 54.34299850463867,-519.8759765625 C-14.02400016784668,-584.4630126953125 -63.933998107910156,-521.1060180664062 -107.89299774169922,-575.1160278320312 C-176.5989990234375,-659.531982421875 -288.09100341796875,-689.81298828125 -354.54998779296875,-602.93798828125 C-420.1419982910156,-517.1959838867188 -340.4419860839844,-346.5169982910156 -142.31300354003906,-209.33599853515625 C-11.321999549865723,-94.81999969482422 -9.274999618530273,-60.5369987487793 -19.584999084472656,22.950000762939453 C-26.805999755859375,81.4280014038086 -82.58699798583984,233.76499938964844 -3.2130000591278076,294.5950012207031 C76.16200256347656,355.42498779296875 136.82699584960938,421.1579895019531 106.24600219726562,487.20098876953125z"></path></g><g opacity="1" transform="matrix(1,0,0,1,0,0)"><g opacity="1" transform="matrix(1,0,0,1,0,0)" style="mix-blend-mode: soft-light;"><g opacity="1" transform="matrix(1,0,0,1,527.155029296875,1051.862060546875)"><path fill="rgb(252,253,254)" fill-opacity="1" d=" M334.64898681640625,666.593994140625 C334.64898681640625,666.593994140625 338.5979919433594,666.1019897460938 338.5979919433594,666.1019897460938 C335.6650085449219,642.5709838867188 332.4150085449219,618.8759765625 328.9410095214844,595.6749877929688 C303.2070007324219,423.89599609375 262.3699951171875,260.7359924316406 207.5590057373047,110.7239990234375 C161.11500549316406,-16.385000228881836 104.01499938964844,-135.85299682617188 37.84299850463867,-244.36199951171875 C-15.371999740600586,-331.625 -74.71600341796875,-412.3070068359375 -138.54200744628906,-484.1659851074219 C-183.41200256347656,-534.6810302734375 -230.01400756835938,-580.3489990234375 -277.0589904785156,-619.89599609375 C-285.2560119628906,-626.7890014648438 -294.0249938964844,-633.3800048828125 -302.5060119628906,-639.7550048828125 C-313.80499267578125,-648.2470092773438 -325.4880065917969,-657.0280151367188 -335.9070129394531,-666.593994140625 C-335.9070129394531,-666.593994140625 -338.5979919433594,-663.6619873046875 -338.5979919433594,-663.6619873046875 C-328.0350036621094,-653.9639892578125 -316.27301025390625,-645.1229858398438 -304.89801025390625,-636.572021484375 C-296.4590148925781,-630.22998046875 -287.7349853515625,-623.6710205078125 -279.6199951171875,-616.8480224609375 C-232.72300720214844,-577.4249877929688 -186.25900268554688,-531.89501953125 -141.51699829101562,-481.5220031738281 C-77.8489990234375,-409.8420104980469 -18.64699935913086,-329.35101318359375 34.44599914550781,-242.28900146484375 C100.48100280761719,-134.0030059814453 157.4669952392578,-14.772000312805176 203.8209991455078,112.09200286865234 C258.5400085449219,261.8500061035156 299.3110046386719,424.7489929199219 325.0039978027344,596.2630004882812 C328.4750061035156,619.4320068359375 331.7200012207031,643.093017578125 334.64898681640625,666.593994140625z"></path></g><g opacity="1" transform="matrix(1,0,0,1,620.9320068359375,722.0009765625)"><path fill="rgb(252,253,254)" fill-opacity="1" d=" M15.708999633789062,222.8990020751953 C15.708999633789062,222.8990020751953 19.312999725341797,221.20899963378906 19.312999725341797,221.20899963378906 C-53.24599838256836,66.56199645996094 10.468000411987305,-219.1479949951172 11.121000289916992,-222.01499938964844 C11.121000289916992,-222.01499938964844 7.239999771118164,-222.8990020751953 7.239999771118164,-222.8990020751953 C6.585000038146973,-220.01699829101562 -57.43000030517578,67.01399993896484 15.708999633789062,222.8990020751953z"></path></g><g opacity="1" transform="matrix(1,0,0,1,681.385986328125,1296.02197265625)"><path fill="rgb(252,253,254)" fill-opacity="1" d=" M120.30599975585938,99.27899932861328 C120.30599975585938,99.27899932861328 124.08100128173828,98.01899719238281 124.08100128173828,98.01899719238281 C87.06700134277344,-12.847999572753906 -120.48799896240234,-98.427001953125 -122.58000183105469,-99.27899932861328 C-122.58000183105469,-99.27899932861328 -124.08100128173828,-95.59100341796875 -124.08100128173828,-95.59100341796875 C-122.00599670410156,-94.74700164794922 83.87100219726562,-9.855999946594238 120.30599975585938,99.27899932861328z"></path></g><g opacity="1" transform="matrix(1,0,0,1,855.0640258789062,1302.947998046875)"><path fill="rgb(252,253,254)" fill-opacity="1" d=" M-37.80799865722656,157.072998046875 C-37.80799865722656,157.072998046875 -33.869998931884766,156.49899291992188 -33.869998931884766,156.49899291992188 C-44.85200119018555,80.99600219726562 -19.488000869750977,-27.839000701904297 37.55099868774414,-149.95199584960938 C40.41899871826172,-156.09300231933594 40.417999267578125,-156.09300231933594 40.31999969482422,-156.8419952392578 C40.31999969482422,-156.8419952392578 36.374000549316406,-156.31700134277344 36.374000549316406,-156.31700134277344 C36.374000549316406,-156.31700134277344 38.34700012207031,-156.57899475097656 38.34700012207031,-156.57899475097656 C38.34700012207031,-156.57899475097656 36.426998138427734,-157.072998046875 36.426998138427734,-157.072998046875 C36.28300094604492,-156.64199829101562 35.20100021362305,-154.32400512695312 33.944000244140625,-151.63699340820312 C-23.41900062561035,-28.826000213623047 -48.902000427246094,80.80699920654297 -37.80799865722656,157.072998046875z"></path></g><g opacity="1" transform="matrix(1,0,0,1,780.2009887695312,1621.4520263671875)"><path fill="rgb(252,253,254)" fill-opacity="1" d=" M75.64299774169922,54.137001037597656 C75.64299774169922,54.137001037597656 79.2509994506836,52.46200180053711 79.2509994506836,52.46200180053711 C43.862998962402344,-23.760000228881836 -77.09700012207031,-53.84199905395508 -78.31300354003906,-54.137001037597656 C-78.31300354003906,-54.137001037597656 -79.2509994506836,-50.26900100708008 -79.2509994506836,-50.26900100708008 C-78.0510025024414,-49.97800064086914 41.06399917602539,-20.34000015258789 75.64299774169922,54.137001037597656z"></path></g><g opacity="1" transform="matrix(1,0,0,1,918.5590209960938,1619.7359619140625)"><path fill="rgb(252,253,254)" fill-opacity="1" d=" M-50.737998962402344,99.02899932861328 C-35.7400016784668,32.944000244140625 -1.277999997138977,-30.996000289916992 54.61899948120117,-96.44400024414062 C54.61899948120117,-96.44400024414062 51.590999603271484,-99.02899932861328 51.590999603271484,-99.02899932861328 C-4.734000205993652,-33.07699966430664 -39.474998474121094,31.420000076293945 -54.61899948120117,98.14900207519531 C-54.61899948120117,98.14900207519531 -50.737998962402344,99.02899932861328 -50.737998962402344,99.02899932861328z"></path></g><g opacity="1" transform="matrix(1,0,0,1,381.3429870605469,499.3330078125)"><path fill="rgb(252,253,254)" fill-opacity="1" d=" M41.191001892089844,113.94499969482422 C41.191001892089844,113.94499969482422 44.69300079345703,112.05599975585938 44.69300079345703,112.05599975585938 C-0.4410000145435333,28.322999954223633 -28.44700050354004,-70.10700225830078 -37.650001525878906,-102.45099639892578 C-39.87799835205078,-110.28099822998047 -40.67100143432617,-113.03399658203125 -41.11399841308594,-113.94499969482422 C-41.11399841308594,-113.94499969482422 -44.69300079345703,-112.2040023803711 -44.69300079345703,-112.2040023803711 C-44.36399841308594,-111.50399780273438 -43.090999603271484,-107.02799987792969 -41.479000091552734,-101.36100006103516 C-32.24599838256836,-68.91300201416016 -4.14900016784668,29.829999923706055 41.191001892089844,113.94499969482422z"></path></g><g opacity="1" transform="matrix(1,0,0,1,394.0880126953125,706.9039916992188)"><path fill="rgb(252,253,254)" fill-opacity="1" d=" M121.96700286865234,31.66200065612793 C121.96700286865234,31.66200065612793 124.75800323486328,28.825000762939453 124.75800323486328,28.825000762939453 C61.1870002746582,-33.75 -117.19499969482422,-31.746999740600586 -124.75800323486328,-31.631999969482422 C-124.75800323486328,-31.631999969482422 -124.69599914550781,-27.652000427246094 -124.69599914550781,-27.652000427246094 C-122.86100006103516,-27.679000854492188 59.58300018310547,-29.743999481201172 121.96700286865234,31.66200065612793z"></path></g></g></g></g><g clip-path="url(#__lottie_element_266)" transform="matrix(0.9997547268867493,-0.022146211937069893,0.022146211937069893,0.9997547268867493,1487.7265625,1487.7325439453125)" opacity="1" style="display: block;"><g opacity="1" transform="matrix(1,0,0,1,0,0)"><path fill="url(#__lottie_element_268)" fill-opacity="1" d=" M-464.9649963378906,548.9509887695312 C-464.9649963378906,548.9509887695312 -696.8880004882812,621.6439819335938 -696.8880004882812,621.6439819335938 C-696.8880004882812,621.6439819335938 -777.8359985351562,516.3579711914062 -747.3170166015625,414.5820007324219 C-685.0499877929688,206.9290008544922 -871.2650146484375,166.88699340820312 -946.75,138.447998046875 C-1060.5880126953125,95.55899810791016 -1129.843994140625,15.74899959564209 -1038.7080078125,-78.66899871826172 C-935.593017578125,-185.4980010986328 -1101.8299560546875,-331.7179870605469 -1295.6600341796875,-374.4859924316406 C-1485.3360595703125,-416.3380126953125 -1520.3900146484375,-777.6589965820312 -1101.541015625,-724.77099609375 C-851.406005859375,-693.1859741210938 -812.9739990234375,-450.5249938964844 -764.4329833984375,-332.59698486328125 C-715.8920288085938,-214.66900634765625 -532.4439697265625,-261.15399169921875 -547.7319946289062,-93.71399688720703 C-560.791015625,49.310001373291016 -632.0260009765625,172.9429931640625 -528.3369750976562,235.95799255371094 C-424.64801025390625,298.9729919433594 -386.177001953125,394.00799560546875 -464.9649963378906,548.9509887695312z"></path></g><g opacity="1" transform="matrix(1,0,0,1,0,0)" style="mix-blend-mode: soft-light;"><g opacity="1" transform="matrix(1,0,0,1,0,0)"><path fill="rgb(190,184,242)" fill-opacity="1" d=" M-558.594970703125,601.93798828125 C-558.594970703125,601.93798828125 -563.68798828125,602.5650024414062 -563.68798828125,602.5650024414062 C-564.0759887695312,599.4110107421875 -604.0780029296875,283.75799560546875 -738.0869750976562,-17.202999114990234 C-861.5430297851562,-294.4700012207031 -1092.3759765625,-615.6389770507812 -1490.9530029296875,-571.1309814453125 C-1490.9530029296875,-571.1309814453125 -1491.52294921875,-576.22998046875 -1491.52294921875,-576.22998046875 C-1314.094970703125,-596.0440063476562 -1154.5909423828125,-546.2990112304688 -1017.4390258789062,-428.3789978027344 C-907.8779907226562,-334.1809997558594 -812.2990112304688,-196.51300048828125 -733.3569946289062,-19.195999145507812 C-599.0609741210938,282.4599914550781 -558.9849853515625,598.7769775390625 -558.594970703125,601.93798828125z"></path></g><g opacity="1" transform="matrix(1,0,0,1,0,0)"><path fill="rgb(190,184,242)" fill-opacity="1" d=" M-962.2550048828125,-376.62799072265625 C-962.2550048828125,-376.62799072265625 -967.3049926757812,-375.7120056152344 -967.3049926757812,-375.7120056152344 C-997.8579711914062,-543.7319946289062 -1131.4649658203125,-754.1279907226562 -1132.81005859375,-756.2340087890625 C-1132.81005859375,-756.2340087890625 -1128.488037109375,-758.9990234375 -1128.488037109375,-758.9990234375 C-1127.136962890625,-756.8829956054688 -992.9879760742188,-545.6329956054688 -962.2550048828125,-376.62799072265625z"></path></g><g opacity="1" transform="matrix(1,0,0,1,0,0)"><path fill="rgb(190,184,242)" fill-opacity="1" d=" M-1055.7919921875,-452.6929931640625 C-1252.7960205078125,-503.7200012207031 -1391.3409423828125,-406.1820068359375 -1392.7159423828125,-405.1910095214844 C-1392.7159423828125,-405.1910095214844 -1395.7149658203125,-409.3529968261719 -1395.7149658203125,-409.3529968261719 C-1394.3189697265625,-410.3609924316406 -1253.925048828125,-509.31201171875 -1054.5059814453125,-457.6610107421875 C-1054.5059814453125,-457.6610107421875 -1055.7919921875,-452.6929931640625 -1055.7919921875,-452.6929931640625z"></path></g><g opacity="1" transform="matrix(1,0,0,1,0,0)"><path fill="rgb(190,184,242)" fill-opacity="1" d=" M-661.197021484375,184.3280029296875 C-788.2940063476562,-29.350000381469727 -1119.9940185546875,12.442999839782715 -1123.1920166015625,13.119999885559082 C-1123.1920166015625,13.119999885559082 -1124.5799560546875,8.185999870300293 -1124.5799560546875,8.185999870300293 C-1121.5050048828125,7.223999977111816 -785.010986328125,-33.87099838256836 -656.7869873046875,181.7050018310547 C-656.7869873046875,181.7050018310547 -661.197021484375,184.3280029296875 -661.197021484375,184.3280029296875z"></path></g><g opacity="1" transform="matrix(1,0,0,1,0,0)"><path fill="rgb(190,184,242)" fill-opacity="1" d=" M-690.343994140625,86.04000091552734 C-690.343994140625,86.04000091552734 -695.4520263671875,86.54499816894531 -695.4520263671875,86.54499816894531 C-711.0819702148438,-71.33100128173828 -582.2750244140625,-223.70799255371094 -580.9710083007812,-225.22900390625 C-580.9710083007812,-225.22900390625 -577.073974609375,-221.89100646972656 -577.073974609375,-221.89100646972656 C-578.364013671875,-220.38499450683594 -705.760009765625,-69.63200378417969 -690.343994140625,86.04000091552734z"></path></g><g opacity="1" transform="matrix(1,0,0,1,0,0)"><path fill="rgb(190,184,242)" fill-opacity="1" d=" M-571.0759887695312,553.031982421875 C-606.2979736328125,465.39898681640625 -756.8720092773438,434.4639892578125 -758.3880004882812,434.1600036621094 C-758.3880004882812,434.1600036621094 -757.385986328125,429.1300048828125 -757.385986328125,429.1300048828125 C-751.0830078125,430.38299560546875 -602.573974609375,460.8999938964844 -566.3150024414062,551.1199951171875 C-566.3150024414062,551.1199951171875 -571.0759887695312,553.031982421875 -571.0759887695312,553.031982421875z"></path></g><g opacity="1" transform="matrix(1,0,0,1,0,0)"><path fill="rgb(190,184,242)" fill-opacity="1" d=" M-579.5440063476562,478.156005859375 C-579.5440063476562,478.156005859375 -584.6290283203125,478.843994140625 -584.6290283203125,478.843994140625 C-594.6519775390625,404.8429870605469 -513.0040283203125,293.3139953613281 -486.1730041503906,256.6650085449219 C-482.3819885253906,251.48500061035156 -479.1099853515625,247.01400756835938 -478.6830139160156,246.10299682617188 C-478.6830139160156,246.10299682617188 -474.0050048828125,248.21099853515625 -474.0050048828125,248.21099853515625 C-474.5880126953125,249.5050048828125 -476.7539978027344,252.48399353027344 -482.0329895019531,259.6960144042969 C-508.5610046386719,295.9320068359375 -589.2899780273438,406.2049865722656 -579.5440063476562,478.156005859375z"></path></g></g></g><g clip-path="url(#__lottie_element_262)" transform="matrix(0.9994481801986694,-0.033215925097465515,0.033215925097465515,0.9994481801986694,-69.07073974609375,44.54833984375)" opacity="1" style="display: block;"><g opacity="1" transform="matrix(1,0,0,1,681.1959838867188,1714.7540283203125)"><path fill="url(#__lottie_element_264)" fill-opacity="1" d=" M134.3159942626953,392.94000244140625 C135.18299865722656,393.34600830078125 136.05299377441406,393.75 136.9250030517578,394.1510009765625 C188.5070037841797,417.9010009765625 249.07400512695312,434.7460021972656 320.281005859375,439.2860107421875 C334.2239990234375,439.1919860839844 348.1650085449219,439.09698486328125 362.1080017089844,439.00299072265625 C374.6679992675781,406.2449951171875 380.75,372.84100341796875 338.6919860839844,358.8479919433594 C273.37701416015625,337.11700439453125 275.3219909667969,221.13400268554688 294.6449890136719,180.67300415039062 C318.5610046386719,130.59300231933594 371.8550109863281,12.840999603271484 271.4100036621094,-22.341999053955078 C187.7899932861328,-51.63199996948242 127.84400177001953,-53.441001892089844 125.25299835205078,-162.33700561523438 C122.66200256347656,-271.23199462890625 65.39399719238281,-340.87200927734375 -33.39699935913086,-337.41900634765625 C-137.35899353027344,-333.7850036621094 -218.22000122070312,-474.4949951171875 -304.63299560546875,-430.8970031738281 C-455.2040100097656,-354.9280090332031 -328.3389892578125,-111.25199890136719 -150.33099365234375,-36.34199905395508 C27.677000045776367,38.56800079345703 -77.63200378417969,100.31700134277344 -85.20999908447266,189.13699340820312 C-95.55500030517578,310.3940124511719 69.44100189208984,289.46099853515625 111.35600280761719,338.50299072265625 C125.55400085449219,355.114013671875 132.1230010986328,374.14801025390625 134.3159942626953,392.94000244140625z"></path></g><g opacity="1" transform="matrix(1,0,0,1,0,0)"><g opacity="1" transform="matrix(1,0,0,1,0,0)" style="mix-blend-mode: soft-light;"><g opacity="1" transform="matrix(1,0,0,1,616.56298828125,1721.2340087890625)"><path fill="rgb(252,253,254)" fill-opacity="1" d=" M299.39898681640625,420.0950012207031 C299.39898681640625,420.0950012207031 304.2279968261719,419.2590026855469 304.2279968261719,419.2590026855469 C243.00799560546875,66.19599914550781 10.736000061035156,-255.42599487304688 -301.94500732421875,-420.0950012207031 C-301.94500732421875,-420.0950012207031 -304.2279968261719,-415.75799560546875 -304.2279968261719,-415.75799560546875 C7.135000228881836,-251.7830047607422 238.43299865722656,68.49800109863281 299.39898681640625,420.0950012207031z"></path></g><g opacity="1" transform="matrix(1,0,0,1,932.8189697265625,1825.81494140625)"><path fill="rgb(252,253,254)" fill-opacity="1" d=" M-66.7239990234375,125.88200378417969 C-66.7239990234375,125.88200378417969 -61.82400131225586,126.01599884033203 -61.82400131225586,126.01599884033203 C-58.0099983215332,-14.755999565124512 65.47599792480469,-121.22000122070312 66.7239990234375,-122.27899932861328 C66.7239990234375,-122.27899932861328 63.55099868774414,-126.01599884033203 63.55099868774414,-126.01599884033203 C62.2869987487793,-124.94499969482422 -62.8489990234375,-17.108999252319336 -66.7239990234375,125.88200378417969z"></path></g><g opacity="1" transform="matrix(1,0,0,1,744.1829833984375,1999.343017578125)"><path fill="rgb(252,253,254)" fill-opacity="1" d=" M158.74600219726562,77.34400177001953 C158.74600219726562,77.34400177001953 163.12100219726562,75.13500213623047 163.12100219726562,75.13500213623047 C98.75900268554688,-52.30500030517578 -160.072998046875,-77.10900115966797 -162.67999267578125,-77.34400177001953 C-162.67999267578125,-77.34400177001953 -163.12100219726562,-72.46199798583984 -163.12100219726562,-72.46199798583984 C-160.54200744628906,-72.22899627685547 95.60800170898438,-47.67300033569336 158.74600219726562,77.34400177001953z"></path></g><g opacity="1" transform="matrix(1,0,0,1,711.14599609375,1507.77294921875)"><path fill="rgb(252,253,254)" fill-opacity="1" d=" M-10.798999786376953,134.2740020751953 C-10.798999786376953,134.2740020751953 -6.249000072479248,132.447998046875 -6.249000072479248,132.447998046875 C-48.49100112915039,27.361000061035156 23.631999969482422,-130.6280059814453 24.364999771118164,-132.21200561523438 C24.364999771118164,-132.21200561523438 19.91900062561035,-134.2740020751953 19.91900062561035,-134.2740020751953 C19.176000595092773,-132.67100524902344 -53.821998596191406,27.246000289916992 -10.798999786376953,134.2740020751953z"></path></g><g opacity="1" transform="matrix(1,0,0,1,410.70599365234375,1447.7760009765625)"><path fill="rgb(252,253,254)" fill-opacity="1" d=" M137.83700561523438,24.726999282836914 C137.83700561523438,24.726999282836914 140.51699829101562,20.621999740600586 140.51699829101562,20.621999740600586 C32.441001892089844,-49.90700149536133 -138.79800415039062,-17.20199966430664 -140.51699829101562,-16.861000061035156 C-140.51699829101562,-16.861000061035156 -139.56900024414062,-12.050999641418457 -139.56900024414062,-12.050999641418457 C-137.8719940185547,-12.390000343322754 31.445999145507812,-44.70500183105469 137.83700561523438,24.726999282836914z"></path></g></g></g></g><g transform="matrix(1,0,0,1,0,0)" opacity="1" style="display: block;"><g opacity="1" transform="matrix(1,0,0,1,0,0)"><g opacity="1" transform="matrix(1,0,0,1,1369.708984375,1515.052001953125)"><path fill="url(#__lottie_element_258)" fill-opacity="1" d=" M665.9349975585938,-1190.4119873046875 C665.9349975585938,-1190.4119873046875 665.9349975585938,1190.4119873046875 665.9349975585938,1190.4119873046875 C665.9349975585938,1226.0159912109375 635.5180053710938,1233.677978515625 601.0269775390625,1234.8060302734375 C601.0269775390625,1234.8060302734375 -569.156982421875,1239.9439697265625 -569.156982421875,1239.9439697265625 C-569.156982421875,1239.9439697265625 -587.0670166015625,1240.530029296875 -587.0670166015625,1240.530029296875 C-623.8170166015625,1241.7320556640625 -653.9349975585938,1212.5760498046875 -653.9349975585938,1175.7359619140625 C-653.9349975585938,1175.7359619140625 -665.9349975585938,-1231.7359619140625 -665.9349975585938,-1231.7359619140625 C-665.9349975585938,-1268.5760498046875 -635.8170166015625,-1297.7320556640625 -599.0670166015625,-1296.530029296875 C-599.0670166015625,-1296.530029296875 -574.7620239257812,-1295.7349853515625 -574.7620239257812,-1295.7349853515625 C-574.7620239257812,-1295.7349853515625 611.7509765625,-1203.4520263671875 611.7509765625,-1203.4520263671875 C646.2420043945312,-1202.323974609375 665.9349975585938,-1226.0159912109375 665.9349975585938,-1190.4119873046875z"></path></g><g opacity="1" transform="matrix(1,0,0,1,1406.5379638671875,1515.052001953125)"><path fill="url(#__lottie_element_259)" fill-opacity="1" d=" M665.9349975585938,-1190.4119873046875 C665.9349975585938,-1190.4119873046875 665.9349975585938,1190.4119873046875 665.9349975585938,1190.4119873046875 C665.9349975585938,1226.0159912109375 637.7620239257812,1256.0679931640625 603.27099609375,1257.196044921875 C603.27099609375,1257.196044921875 -587.0670166015625,1240.530029296875 -587.0670166015625,1240.530029296875 C-623.8170166015625,1241.7320556640625 -653.9349975585938,1212.5760498046875 -653.9349975585938,1175.7359619140625 C-653.9349975585938,1175.7359619140625 -665.9349975585938,-1231.7359619140625 -665.9349975585938,-1231.7359619140625 C-665.9349975585938,-1268.5760498046875 -635.8170166015625,-1297.7320556640625 -599.0670166015625,-1296.530029296875 C-599.0670166015625,-1296.530029296875 603.27099609375,-1257.196044921875 603.27099609375,-1257.196044921875 C637.7620239257812,-1256.0679931640625 665.9349975585938,-1226.0159912109375 665.9349975585938,-1190.4119873046875z"></path></g><g opacity="1" transform="matrix(1,0,0,1,1407.8690185546875,1559.6409912109375)"><path fill="url(#__lottie_element_260)" fill-opacity="1" d=" M625.6900024414062,-1104.116943359375 C625.6900024414062,-1104.116943359375 625.6900024414062,1101.4339599609375 625.6900024414062,1101.4339599609375 C625.6900024414062,1134.675048828125 599.3599853515625,1162.698974609375 567.1309814453125,1163.7110595703125 C567.1309814453125,1163.7110595703125 -551.4459838867188,1143.22705078125 -551.4459838867188,1143.22705078125 C-585.656005859375,1144.302001953125 -613.6900024414062,1117.0999755859375 -613.6900024414062,1082.7760009765625 C-613.6900024414062,1082.7760009765625 -625.6900024414062,-1138.6400146484375 -625.6900024414062,-1138.6400146484375 C-625.6900024414062,-1172.9639892578125 -597.656005859375,-1200.22900390625 -563.4459838867188,-1199.23095703125 C-563.4459838867188,-1199.23095703125 567.1309814453125,-1166.261962890625 567.1309814453125,-1166.261962890625 C599.3599853515625,-1165.322021484375 625.6900024414062,-1137.3570556640625 625.6900024414062,-1104.116943359375z"></path></g></g><g opacity="1" transform="matrix(1,0,0,1,1417.885986328125,311.6000061035156)"><path fill="rgb(216,117,218)" fill-opacity="1" d=" M22.34000015258789,0.6890000104904175 C22.34000015258789,13.234000205993652 12.347000122070312,23.101999282836914 0.013000000268220901,22.729000091552734 C-12.329000473022461,22.354999542236328 -22.34000015258789,11.871000289916992 -22.34000015258789,-0.6890000104904175 C-22.34000015258789,-13.24899959564209 -12.329000473022461,-23.115999221801758 0.013000000268220901,-22.72800064086914 C12.347000122070312,-22.34000015258789 22.34000015258789,-11.855999946594238 22.34000015258789,0.6890000104904175z"></path></g></g><g mask="url(#__lottie_element_248)" style="display: block;"><g transform="matrix(1,0,0,1,0,-2338.412109375)" opacity="1"><g opacity="1" transform="matrix(1,0,0,1,0,0)"><g opacity="1" transform="matrix(1,0,0,1,1409.5179443359375,972.1489868164062)"><g opacity="1" transform="matrix(1,0,0,1,0,0)"><path fill="rgb(244,247,250)" fill-opacity="1" d=" M515.4940185546875,527.5380249023438 C515.4940185546875,527.5380249023438 -512.4810180664062,501.5769958496094 -512.4810180664062,501.5769958496094 C-543.0919799804688,502.4649963378906 -567.9409790039062,478.2590026855469 -567.9409790039062,447.510986328125 C-567.9409790039062,447.510986328125 -567.9409790039062,-491.2200012207031 -567.9409790039062,-491.2200012207031 C-567.9409790039062,-521.968017578125 -543.0919799804688,-546.9550170898438 -512.4810180664062,-547.031005859375 C-512.4810180664062,-547.031005859375 519.4940185546875,-513.5999755859375 519.4940185546875,-513.5999755859375 C548.47802734375,-513.6719970703125 571.9409790039062,-489.5249938964844 571.9409790039062,-459.6650085449219 C571.9409790039062,-459.6650085449219 567.9409790039062,471.95098876953125 567.9409790039062,471.95098876953125 C567.9409790039062,501.8110046386719 544.47802734375,526.697998046875 515.4940185546875,527.5380249023438z"></path></g></g><g opacity="1" transform="matrix(1,0,0,1,1416.8609619140625,1292.9029541015625)"><path fill="rgb(194,129,232)" fill-opacity="1" d=" M192.34300231933594,66.50900268554688 C192.34300231933594,66.50900268554688 -192.16000366210938,64.96800231933594 -192.16000366210938,64.96800231933594 C-197.2050018310547,64.947998046875 -201.2949981689453,60.790000915527344 -201.2949981689453,55.68299865722656 C-201.2949981689453,55.68299865722656 -201.2949981689453,-57.327999114990234 -201.2949981689453,-57.327999114990234 C-201.2949981689453,-62.435001373291016 -197.2050018310547,-66.5459976196289 -192.16000366210938,-66.50900268554688 C-192.16000366210938,-66.50900268554688 192.34300231933594,-63.67900085449219 192.34300231933594,-63.67900085449219 C197.28799438476562,-63.643001556396484 201.2949981689453,-59.51499938964844 201.2949981689453,-54.459999084472656 C201.2949981689453,-54.459999084472656 201.2949981689453,57.391998291015625 201.2949981689453,57.391998291015625 C201.2949981689453,62.446998596191406 197.28799438476562,66.52899932861328 192.34300231933594,66.50900268554688z"></path></g><g opacity="1" transform="matrix(1,0,0,1,1427.199951171875,1050.6949462890625)"><path fill="rgb(216,222,232)" fill-opacity="1" d=" M462.7170104980469,69.42900085449219 C462.7170104980469,69.42900085449219 -462.7170104980469,59.948001861572266 -462.7170104980469,59.948001861572266 C-462.7170104980469,59.948001861572266 -462.7170104980469,-69.42900085449219 -462.7170104980469,-69.42900085449219 C-462.7170104980469,-69.42900085449219 462.7170104980469,-56.915000915527344 462.7170104980469,-56.915000915527344 C462.7170104980469,-56.915000915527344 462.7170104980469,69.42900085449219 462.7170104980469,69.42900085449219z"></path></g><g opacity="1" transform="matrix(1,0,0,1,1427.199951171875,734.218017578125)"><path fill="rgb(216,222,232)" fill-opacity="1" d=" M462.7170104980469,190.3730010986328 C462.7170104980469,190.3730010986328 -462.7170104980469,176.197998046875 -462.7170104980469,176.197998046875 C-462.7170104980469,176.197998046875 -462.7170104980469,-190.3730010986328 -462.7170104980469,-190.3730010986328 C-462.7170104980469,-190.3730010986328 462.7170104980469,-167.60400390625 462.7170104980469,-167.60400390625 C462.7170104980469,-167.60400390625 462.7170104980469,190.3730010986328 462.7170104980469,190.3730010986328z"></path></g></g><g opacity="1" transform="matrix(1,0,0,1,0,0)"><g opacity="1" transform="matrix(1,0,0,1,1409.5179443359375,2120.14892578125)"><g opacity="1" transform="matrix(1,0,0,1,0,0)"><path fill="rgb(244,247,250)" fill-opacity="1" d=" M515.4940185546875,527.5380249023438 C515.4940185546875,527.5380249023438 -512.4810180664062,501.5769958496094 -512.4810180664062,501.5769958496094 C-543.0919799804688,502.4649963378906 -567.9409790039062,478.2590026855469 -567.9409790039062,447.510986328125 C-567.9409790039062,447.510986328125 -567.9409790039062,-491.2200012207031 -567.9409790039062,-491.2200012207031 C-567.9409790039062,-521.968017578125 -543.0919799804688,-546.9550170898438 -512.4810180664062,-547.031005859375 C-512.4810180664062,-547.031005859375 519.4940185546875,-513.5999755859375 519.4940185546875,-513.5999755859375 C548.47802734375,-513.6719970703125 571.9409790039062,-489.5249938964844 571.9409790039062,-459.6650085449219 C571.9409790039062,-459.6650085449219 567.9409790039062,471.95098876953125 567.9409790039062,471.95098876953125 C567.9409790039062,501.8110046386719 544.47802734375,526.697998046875 515.4940185546875,527.5380249023438z"></path></g></g><g opacity="1" transform="matrix(1,0,0,1,1414.032958984375,2014.865966796875)"><path fill="rgb(216,222,232)" fill-opacity="1" d=" M365.0690002441406,296.65301513671875 C365.0690002441406,296.65301513671875 -370.3800048828125,289.5090026855469 -370.3800048828125,289.5090026855469 C-380.35198974609375,289.7090148925781 -388.4389953613281,281.7229919433594 -388.4389953613281,271.6719970703125 C-388.4389953613281,271.6719970703125 -388.4389953613281,-267.1809997558594 -388.4389953613281,-267.1809997558594 C-388.4389953613281,-277.23199462890625 -380.35198974609375,-285.42401123046875 -370.3800048828125,-285.4779968261719 C-370.3800048828125,-285.4779968261719 365.0690002441406,-267.5119934082031 365.0690002441406,-267.5119934082031 C374.6650085449219,-267.5639953613281 382.4389953613281,-259.6189880371094 382.4389953613281,-249.76600646972656 C382.4389953613281,-249.76600646972656 382.4389953613281,278.4649963378906 382.4389953613281,278.4649963378906 C382.4389953613281,288.3179931640625 374.6650085449219,296.46099853515625 365.0690002441406,296.65301513671875z"></path></g><g opacity="1" transform="matrix(1,0,0,1,1416.8609619140625,2465.614990234375)"><path fill="rgb(194,129,232)" fill-opacity="1" d=" M198.34300231933594,74.08999633789062 C198.34300231933594,74.08999633789062 -192.16000366210938,70.09700012207031 -192.16000366210938,70.09700012207031 C-197.2050018310547,70.22799682617188 -201.2949981689453,66.19400024414062 -201.2949981689453,61.08700180053711 C-201.2949981689453,61.08700180053711 -201.2949981689453,-51.92499923706055 -201.2949981689453,-51.92499923706055 C-201.2949981689453,-57.03200149536133 -197.2050018310547,-61.26499938964844 -192.16000366210938,-61.380001068115234 C-192.16000366210938,-61.380001068115234 198.34300231933594,-56.097999572753906 198.34300231933594,-56.097999572753906 C203.28799438476562,-56.209999084472656 207.2949981689453,-52.202999114990234 207.2949981689453,-47.14799880981445 C207.2949981689453,-47.14799880981445 207.2949981689453,64.7040023803711 207.2949981689453,64.7040023803711 C207.2949981689453,69.75900268554688 203.28799438476562,73.96099853515625 198.34300231933594,74.08999633789062z"></path></g><g opacity="1" transform="matrix(1,0,0,1,1427.9749755859375,1872.508056640625)"><path fill="rgb(244,247,250)" fill-opacity="1" d=" M-10.076000213623047,180.46400451660156 C-13.692000389099121,180.51400756835938 -17.30500030517578,179.32899475097656 -20.475000381469727,176.91200256347656 C-20.475000381469727,176.91200256347656 -426.2879943847656,-132.51699829101562 -426.2879943847656,-132.51699829101562 C-435.5140075683594,-139.552001953125 -438.23699951171875,-154.31700134277344 -432.3699951171875,-165.49000549316406 C-426.5039978027344,-176.6580047607422 -414.2829895019531,-180.00399780273438 -405.0610046386719,-172.96400451660156 C-405.0610046386719,-172.96400451660156 -9.713000297546387,129.05599975585938 -9.713000297546387,129.05599975585938 C-9.713000297546387,129.05599975585938 406.8590087890625,-177.15499877929688 406.8590087890625,-177.15499877929688 C415.864013671875,-183.77499389648438 427.49200439453125,-180.15499877929688 432.8219909667969,-169.06199645996094 C438.1470031738281,-157.97500610351562 435.16900634765625,-143.61700439453125 426.1700134277344,-136.98800659179688 C426.1700134277344,-136.98800659179688 -0.20999999344348907,177.031005859375 -0.20999999344348907,177.031005859375 C-3.255000114440918,179.2729949951172 -6.666999816894531,180.41700744628906 -10.076000213623047,180.46400451660156z"></path></g></g><g opacity="1" transform="matrix(1,0,0,1,0,2336)"><g opacity="1" transform="matrix(1,0,0,1,1409.5179443359375,972.1489868164062)"><g opacity="1" transform="matrix(1,0,0,1,0,0)"><path fill="rgb(244,247,250)" fill-opacity="1" d=" M515.4940185546875,527.5380249023438 C515.4940185546875,527.5380249023438 -512.4810180664062,501.5769958496094 -512.4810180664062,501.5769958496094 C-543.0919799804688,502.4649963378906 -567.9409790039062,478.2590026855469 -567.9409790039062,447.510986328125 C-567.9409790039062,447.510986328125 -567.9409790039062,-491.2200012207031 -567.9409790039062,-491.2200012207031 C-567.9409790039062,-521.968017578125 -543.0919799804688,-546.9550170898438 -512.4810180664062,-547.031005859375 C-512.4810180664062,-547.031005859375 519.4940185546875,-513.5999755859375 519.4940185546875,-513.5999755859375 C548.47802734375,-513.6719970703125 571.9409790039062,-489.5249938964844 571.9409790039062,-459.6650085449219 C571.9409790039062,-459.6650085449219 567.9409790039062,471.95098876953125 567.9409790039062,471.95098876953125 C567.9409790039062,501.8110046386719 544.47802734375,526.697998046875 515.4940185546875,527.5380249023438z"></path></g></g><g opacity="1" transform="matrix(1,0,0,1,1416.8609619140625,1292.544677734375)"><path fill="rgb(194,129,232)" fill-opacity="1" d=" M192.34300231933594,66.50900268554688 C192.34300231933594,66.50900268554688 -192.16000366210938,64.96800231933594 -192.16000366210938,64.96800231933594 C-197.2050018310547,64.947998046875 -201.2949981689453,60.790000915527344 -201.2949981689453,55.68299865722656 C-201.2949981689453,55.68299865722656 -201.2949981689453,-57.327999114990234 -201.2949981689453,-57.327999114990234 C-201.2949981689453,-62.435001373291016 -197.2050018310547,-66.5459976196289 -192.16000366210938,-66.50900268554688 C-192.16000366210938,-66.50900268554688 192.34300231933594,-63.67900085449219 192.34300231933594,-63.67900085449219 C197.28799438476562,-63.643001556396484 201.2949981689453,-59.51499938964844 201.2949981689453,-54.459999084472656 C201.2949981689453,-54.459999084472656 201.2949981689453,57.391998291015625 201.2949981689453,57.391998291015625 C201.2949981689453,62.446998596191406 197.28799438476562,66.52899932861328 192.34300231933594,66.50900268554688z"></path></g><g opacity="1" transform="matrix(1,0,0,1,1427.199951171875,1050.336669921875)"><path fill="rgb(216,222,232)" fill-opacity="1" d=" M462.7170104980469,69.42900085449219 C462.7170104980469,69.42900085449219 -462.7170104980469,59.948001861572266 -462.7170104980469,59.948001861572266 C-462.7170104980469,59.948001861572266 -462.7170104980469,-69.42900085449219 -462.7170104980469,-69.42900085449219 C-462.7170104980469,-69.42900085449219 462.7170104980469,-56.915000915527344 462.7170104980469,-56.915000915527344 C462.7170104980469,-56.915000915527344 462.7170104980469,69.42900085449219 462.7170104980469,69.42900085449219z"></path></g><g opacity="1" transform="matrix(1,0,0,1,1427.199951171875,734.218017578125)"><path fill="rgb(216,222,232)" fill-opacity="1" d=" M462.7170104980469,190.3730010986328 C462.7170104980469,190.3730010986328 -462.7170104980469,176.197998046875 -462.7170104980469,176.197998046875 C-462.7170104980469,176.197998046875 -462.7170104980469,-190.3730010986328 -462.7170104980469,-190.3730010986328 C-462.7170104980469,-190.3730010986328 462.7170104980469,-167.60400390625 462.7170104980469,-167.60400390625 C462.7170104980469,-167.60400390625 462.7170104980469,190.3730010986328 462.7170104980469,190.3730010986328z"></path></g></g><g opacity="1" transform="matrix(1,0,0,1,0,2335.999755859375)"><g opacity="1" transform="matrix(1,0,0,1,1409.5179443359375,2120.14892578125)"><g opacity="1" transform="matrix(1,0,0,1,0,0)"><path fill="rgb(244,247,250)" fill-opacity="1" d=" M515.4940185546875,527.5380249023438 C515.4940185546875,527.5380249023438 -512.4810180664062,501.5769958496094 -512.4810180664062,501.5769958496094 C-543.0919799804688,502.4649963378906 -567.9409790039062,478.2590026855469 -567.9409790039062,447.510986328125 C-567.9409790039062,447.510986328125 -567.9409790039062,-491.2200012207031 -567.9409790039062,-491.2200012207031 C-567.9409790039062,-521.968017578125 -543.0919799804688,-546.9550170898438 -512.4810180664062,-547.031005859375 C-512.4810180664062,-547.031005859375 519.4940185546875,-513.5999755859375 519.4940185546875,-513.5999755859375 C548.47802734375,-513.6719970703125 571.9409790039062,-489.5249938964844 571.9409790039062,-459.6650085449219 C571.9409790039062,-459.6650085449219 567.9409790039062,471.95098876953125 567.9409790039062,471.95098876953125 C567.9409790039062,501.8110046386719 544.47802734375,526.697998046875 515.4940185546875,527.5380249023438z"></path></g></g><g opacity="1" transform="matrix(1,0,0,1,1414.032958984375,2014.865966796875)"><path fill="rgb(216,222,232)" fill-opacity="1" d=" M365.0690002441406,296.65301513671875 C365.0690002441406,296.65301513671875 -370.3800048828125,289.5090026855469 -370.3800048828125,289.5090026855469 C-380.35198974609375,289.7090148925781 -388.4389953613281,281.7229919433594 -388.4389953613281,271.6719970703125 C-388.4389953613281,271.6719970703125 -388.4389953613281,-267.1809997558594 -388.4389953613281,-267.1809997558594 C-388.4389953613281,-277.23199462890625 -380.35198974609375,-285.42401123046875 -370.3800048828125,-285.4779968261719 C-370.3800048828125,-285.4779968261719 365.0690002441406,-267.5119934082031 365.0690002441406,-267.5119934082031 C374.6650085449219,-267.5639953613281 382.4389953613281,-259.6189880371094 382.4389953613281,-249.76600646972656 C382.4389953613281,-249.76600646972656 382.4389953613281,278.4649963378906 382.4389953613281,278.4649963378906 C382.4389953613281,288.3179931640625 374.6650085449219,296.46099853515625 365.0690002441406,296.65301513671875z"></path></g><g opacity="1" transform="matrix(1,0,0,1,1416.8609619140625,2465.614990234375)"><path fill="rgb(194,129,232)" fill-opacity="1" d=" M198.34300231933594,74.08999633789062 C198.34300231933594,74.08999633789062 -192.16000366210938,70.09700012207031 -192.16000366210938,70.09700012207031 C-197.2050018310547,70.22799682617188 -201.2949981689453,66.19400024414062 -201.2949981689453,61.08700180053711 C-201.2949981689453,61.08700180053711 -201.2949981689453,-51.92499923706055 -201.2949981689453,-51.92499923706055 C-201.2949981689453,-57.03200149536133 -197.2050018310547,-61.26499938964844 -192.16000366210938,-61.380001068115234 C-192.16000366210938,-61.380001068115234 198.34300231933594,-56.097999572753906 198.34300231933594,-56.097999572753906 C203.28799438476562,-56.209999084472656 207.2949981689453,-52.202999114990234 207.2949981689453,-47.14799880981445 C207.2949981689453,-47.14799880981445 207.2949981689453,64.7040023803711 207.2949981689453,64.7040023803711 C207.2949981689453,69.75900268554688 203.28799438476562,73.96099853515625 198.34300231933594,74.08999633789062z"></path></g><g opacity="1" transform="matrix(1,0,0,1,1427.9749755859375,1872.508056640625)"><path fill="rgb(244,247,250)" fill-opacity="1" d=" M-10.076000213623047,180.46400451660156 C-13.692000389099121,180.51400756835938 -17.30500030517578,179.32899475097656 -20.475000381469727,176.91200256347656 C-20.475000381469727,176.91200256347656 -426.2879943847656,-132.51699829101562 -426.2879943847656,-132.51699829101562 C-435.5140075683594,-139.552001953125 -438.23699951171875,-154.31700134277344 -432.3699951171875,-165.49000549316406 C-426.5039978027344,-176.6580047607422 -414.2829895019531,-180.00399780273438 -405.0610046386719,-172.96400451660156 C-405.0610046386719,-172.96400451660156 -9.713000297546387,129.05599975585938 -9.713000297546387,129.05599975585938 C-9.713000297546387,129.05599975585938 406.8590087890625,-177.15499877929688 406.8590087890625,-177.15499877929688 C415.864013671875,-183.77499389648438 427.49200439453125,-180.15499877929688 432.8219909667969,-169.06199645996094 C438.1470031738281,-157.97500610351562 435.16900634765625,-143.61700439453125 426.1700134277344,-136.98800659179688 C426.1700134277344,-136.98800659179688 -0.20999999344348907,177.031005859375 -0.20999999344348907,177.031005859375 C-3.255000114440918,179.2729949951172 -6.666999816894531,180.41700744628906 -10.076000213623047,180.46400451660156z"></path></g></g></g></g><g transform="matrix(1,0,0,1,1752.501953125,1618.178955078125)" opacity="0.5" style="mix-blend-mode: multiply; display: block;"><g opacity="1" transform="matrix(1,0,0,1,0,0)" style="mix-blend-mode: multiply;"><path fill="rgb(216,222,232)" fill-opacity="1" d=" M319.97100830078125,-1146.97705078125 C284.2980041503906,-1142.5780029296875 233.7899932861328,-1134.177001953125 175.22999572753906,-1116.7080078125 C89.31600189208984,-1091.0799560546875 -126.0790023803711,-1026.824951171875 -241.5970001220703,-845.718994140625 C-376.0299987792969,-634.958984375 -300.6910095214844,-382.7619934082031 -282.51800537109375,-321.9289855957031 C-222.35299682617188,-120.5250015258789 -70.68399810791016,58.41999816894531 16.207000732421875,160.94000244140625 C118.03299713134766,281.0799865722656 162.18800354003906,304.3089904785156 171.70599365234375,380.8900146484375 C186.96200561523438,503.6449890136719 88.39199829101562,563.739013671875 82.61299896240234,758.7999877929688 C81.45500183105469,797.8610229492188 80.31900024414062,851.927001953125 101.23100280761719,916.5020141601562 C142.1479949951172,1042.85595703125 237.2209930419922,1116.010986328125 283.8800048828125,1146.97705078125 C295.9100036621094,382.32598876953125 307.9410095214844,-382.32598876953125 319.97100830078125,-1146.97705078125z"></path></g></g><g transform="matrix(1,0,0,1,0,0.0009765625)" opacity="1" style="display: block;"><g opacity="1" transform="matrix(1,0,0,1,2403.47412109375,1799.7139892578125)"><path fill="url(#__lottie_element_225)" fill-opacity="1" d=" M-190.81100463867188,-443.9849853515625 C-91.3550033569336,-492.5559997558594 102.63200378417969,-316.62799072265625 197.03599548339844,-148.11500549316406 C234.65699768066406,-80.96399688720703 278.82501220703125,-2.124000072479248 267.98699951171875,91.60299682617188 C248.77499389648438,257.7699890136719 64.44499969482422,403.52801513671875 -189.2689971923828,452.18798828125 C-196.41000366210938,426.677001953125 -203.55299377441406,401.1679992675781 -210.6959991455078,375.6600036621094 C-182.95399475097656,346.7690124511719 -141.4709930419922,305.0559997558594 -88.45099639892578,257.2650146484375 C-7.010000228881836,183.85299682617188 9.725000381469727,178.95899963378906 13.630999565124512,155.78199768066406 C26.424999237060547,79.86399841308594 -168.8040008544922,16.309999465942383 -238.24600219726562,-117.1719970703125 C-297.9490051269531,-231.93800354003906 -267.2139892578125,-406.6709899902344 -190.81100463867188,-443.9849853515625z"></path></g><g opacity="1" transform="matrix(1,0,0,1,2430.44189453125,2727.178955078125)"><path fill="url(#__lottie_element_226)" fill-opacity="1" d=" M-87.11599731445312,-35.909000396728516 C-87.11599731445312,-35.909000396728516 -103.44400024414062,4.373000144958496 -95.32499694824219,20.14699935913086 C-86.8010025024414,36.70800018310547 -62.15599822998047,31.784000396728516 7.2210001945495605,34.38999938964844 C78.2760009765625,37.058998107910156 94.3479995727539,42.762001037597656 97.18699645996094,35.624000549316406 C102.86100006103516,21.361000061035156 47.654998779296875,-23.93600082397461 -16.926000595092773,-35.909000396728516 C-45.374000549316406,-41.18299865722656 -70.0199966430664,-38.94900131225586 -87.11599731445312,-35.909000396728516z"></path></g><g opacity="1" transform="matrix(0.14124681055545807,0.9899744391441345,-0.9899744391441345,0.14124681055545807,2106.44189453125,2285.178955078125)"><path fill="url(#__lottie_element_227)" fill-opacity="1" d=" M-87.11599731445312,-35.909000396728516 C-87.11599731445312,-35.909000396728516 -103.44400024414062,4.373000144958496 -95.32499694824219,20.14699935913086 C-86.8010025024414,36.70800018310547 -62.15599822998047,31.784000396728516 7.2210001945495605,34.38999938964844 C78.2760009765625,37.058998107910156 94.3479995727539,42.762001037597656 97.18699645996094,35.624000549316406 C102.86100006103516,21.361000061035156 47.654998779296875,-23.93600082397461 -16.926000595092773,-35.909000396728516 C-45.374000549316406,-41.18299865722656 -70.0199966430664,-38.94900131225586 -87.11599731445312,-35.909000396728516z"></path></g><g opacity="1" transform="matrix(1,0,0,1,2351.31298828125,2667.403076171875)"><path fill="url(#__lottie_element_228)" fill-opacity="1" d=" M6.644000053405762,-36.35200119018555 C6.644000053405762,-36.35200119018555 45.2760009765625,23.864999771118164 45.2760009765625,23.864999771118164 C45.2760009765625,23.864999771118164 27.472000122070312,41.435001373291016 -2.7790000438690186,34.893001556396484 C-2.7790000438690186,34.893001556396484 -45.2760009765625,-22.1560001373291 -45.2760009765625,-22.1560001373291 C-45.2760009765625,-22.1560001373291 6.644000053405762,-36.35200119018555 6.644000053405762,-36.35200119018555z"></path></g><g opacity="0.3" transform="matrix(1,0,0,1,2385.5400390625,1799.7530517578125)" style="mix-blend-mode: multiply;"><path fill="url(#__lottie_element_229)" fill-opacity="1" d=" M-220.31199645996094,-117.21099853515625 C-280.0150146484375,-231.9770050048828 -249.27999877929688,-406.7099914550781 -172.8769989013672,-444.02398681640625 C-152.8419952392578,-453.8070068359375 -128.9320068359375,-454.35400390625 -102.81099700927734,-447.81201171875 C-116.56600189208984,-408.0929870605469 -113.83899688720703,-379.375 -107.052001953125,-359.0360107421875 C-76.78099822998047,-268.31201171875 54.09000015258789,-278.6340026855469 94.97799682617188,-175.37100219726562 C120.82599639892578,-110.09400177001953 79.7239990234375,-77.70099639892578 116.40599822998047,-25.378000259399414 C154.4219970703125,28.847000122070312 216.58700561523438,19.753999710083008 235.78799438476562,72.57599639892578 C250.0959930419922,111.93299865722656 221.88099670410156,134.31199645996094 232.7270050048828,167.46800231933594 C235.74899291992188,176.70799255371094 241.7050018310547,185.98500061035156 251.718994140625,194.7949981689453 C184.4810028076172,315.72100830078125 28.017000198364258,413.91400146484375 -171.3350067138672,452.14801025390625 C-178.4759979248047,426.6369934082031 -185.61900329589844,401.1300048828125 -192.76199340820312,375.6210021972656 C-165.02000427246094,346.7300109863281 -123.53700256347656,305.0169982910156 -70.51699829101562,257.22601318359375 C10.923999786376953,183.81399536132812 27.659000396728516,178.9199981689453 31.565000534057617,155.7429962158203 C44.358001708984375,79.82499694824219 -150.8699951171875,16.270999908447266 -220.31199645996094,-117.21099853515625z"></path></g><g opacity="1" transform="matrix(1,0,0,1,2143.7119140625,2031.35400390625)"><path fill="url(#__lottie_element_230)" fill-opacity="1" d=" M136.81700134277344,-639.614013671875 C132.51400756835938,-465.6860046386719 134.927001953125,-277.62799072265625 147.5229949951172,-77.427001953125 C163.6060028076172,178.20700073242188 193.73699951171875,413.0060119628906 230.56700134277344,623.9979858398438 C214.20599365234375,629.2039794921875 197.84500122070312,634.406982421875 181.48500061035156,639.614013671875 C13.210000038146973,475.6600036621094 -37.14400100708008,331.4330139160156 -50.93000030517578,227.68899536132812 C-60.67399978637695,154.35299682617188 -45.926998138427734,148.05099487304688 -59.077999114990234,56.26599884033203 C-84.1240005493164,-118.5250015258789 -149.46099853515625,-178.38600158691406 -195.34300231933594,-342.0190124511719 C-212.56300354003906,-403.43701171875 -231.73500061035156,-496.2179870605469 -230.51100158691406,-617.1649780273438 C-108.06900024414062,-624.6480102539062 14.375,-632.1309814453125 136.81700134277344,-639.614013671875z"></path></g><g opacity="1" transform="matrix(1,0,0,1,2266.2529296875,1093.9439697265625)"><path fill="url(#__lottie_element_231)" fill-opacity="1" d=" M134.8159942626953,-13.741999626159668 C131.76100158691406,-13.041999816894531 118.49600219726562,-8.628999710083008 113.2509994506836,46.78900146484375 C100.60199737548828,180.41400146484375 170.17599487304688,234.51400756835938 153.04400634765625,306.9800109863281 C136.60000610351562,376.5369873046875 52.73699951171875,410.2829895019531 -33.58300018310547,445.0190124511719 C-91.26799774169922,468.2330017089844 -269.6860046386719,540.0269775390625 -373.4460144042969,459.2969970703125 C-417.114990234375,425.32000732421875 -412.7659912109375,380.5069885253906 -443.91900634765625,229.72300720214844 C-523.072998046875,-153.38299560546875 -497.0710144042969,-196.677001953125 -463.781005859375,-279.6109924316406 C-406.6130065917969,-422.0329895019531 -313.385986328125,-456.4639892578125 -287.91900634765625,-466.2770080566406 C-16.367000579833984,-570.9119873046875 298.35699462890625,-388.9800109863281 425.07501220703125,-168.0449981689453 C441.760986328125,-138.9550018310547 541.4080200195312,34.78499984741211 471.39599609375,117.19300079345703 C429.03900146484375,167.0469970703125 331.7040100097656,175.0959930419922 267.468994140625,141.10000610351562 C181.64599609375,95.6780014038086 163.41099548339844,-20.297000885009766 134.8159942626953,-13.741999626159668z"></path></g><g opacity="0.3" transform="matrix(1,0,0,1,2094.7490234375,1142.593994140625)" style="mix-blend-mode: multiply;"><path fill="url(#__lottie_element_232)" fill-opacity="1" d=" M-180.5290069580078,-363.0669860839844 C-163.38999938964844,-316.40899658203125 -214.8159942626953,-275.9800109863281 -192.7729949951172,-225.32000732421875 C-161.18099975585938,-152.7169952392578 -35.62900161743164,-189.97999572753906 9.258000373840332,-118.18199920654297 C62.457000732421875,-33.0880012512207 -59.367000579833984,106.48300170898438 -9.107999801635742,154.2530059814453 C13.795000076293945,176.02099609375 40.25600051879883,148.14199829101562 107.21199798583984,163.43699645996094 C202.57000732421875,185.218994140625 231.2209930419922,260.5719909667969 275.5710144042969,249.14599609375 C289.5199890136719,245.55299377441406 306.4289855957031,232.88999938964844 320.6549987792969,193.9080047607422 C326.85699462890625,215.53700256347656 329.8089904785156,236.07000732421875 324.5480041503906,258.3290100097656 C308.10400390625,327.885986328125 224.24000549316406,361.63299560546875 137.91900634765625,396.3689880371094 C80.23200225830078,419.5830078125 -98.18299865722656,491.3760070800781 -201.9429931640625,410.64599609375 C-245.61199951171875,376.66900634765625 -241.26300048828125,331.8559875488281 -272.4159851074219,181.07200622558594 C-351.57000732421875,-202.03399658203125 -331.03900146484375,-241.32699584960938 -297.7489929199219,-324.260986328125 C-279.59698486328125,-369.4830017089844 -247.90499877929688,-418.5060119628906 -217.5709991455078,-448 C-152.17100524902344,-433.5539855957031 -189.5,-387.4930114746094 -180.5290069580078,-363.0669860839844z"></path></g><g opacity="1" transform="matrix(1,0,0,1,2211.06396484375,594.3880004882812)"><path fill="url(#__lottie_element_233)" fill-opacity="1" d=" M41.237998962402344,-4.322999954223633 C36.176998138427734,13.437000274658203 46.861000061035156,31.893999099731445 64.81300354003906,36.22600173950195 C86.55799865722656,41.472999572753906 113.0459976196289,48.72800064086914 124.48500061035156,55.27299880981445 C145.4810028076172,67.28900146484375 60.52899932861328,53.40800094604492 -17.611000061035156,51.57500076293945 C-66.39299774169922,50.430999755859375 -102.84700012207031,44.95500183105469 -123.35199737548828,41.00199890136719 C-128.85699462890625,39.939998626708984 -129.2830047607422,32.25600051879883 -123.9540023803711,30.523000717163086 C-104.427001953125,24.170000076293945 -72.68199920654297,14.817999839782715 -45.85300064086914,11.446000099182129 C-20.700000762939453,8.284000396728516 5.833000183105469,-34.518001556396484 17.231000900268555,-55.10900115966797 C20.268999099731445,-60.59700012207031 27.62700080871582,-61.80699920654297 32.27000045776367,-57.59000015258789 C32.27000045776367,-57.59000015258789 43.95899963378906,-46.972999572753906 43.95899963378906,-46.972999572753906 C48.547000885009766,-42.805999755859375 50.375,-36.39799880981445 48.676998138427734,-30.437000274658203 C48.676998138427734,-30.437000274658203 41.237998962402344,-4.322999954223633 41.237998962402344,-4.322999954223633z"></path></g></g><g transform="matrix(0.920015811920166,-0.3918812870979309,0.3918812870979309,0.920015811920166,2334.007568359375,941.0857543945312)" opacity="1" style="display: block;"><g opacity="1" transform="matrix(1,0,0,1,0,0)"><path fill="url(#__lottie_element_244)" fill-opacity="1" d=" M-48.347999572753906,12.326000213623047 C-47.63199996948242,6.801000118255615 -42.027000427246094,-31.3700008392334 -10.154999732971191,-43.5989990234375 C5.697999954223633,-49.68199920654297 33.558998107910156,-51.459999084472656 44.40700149536133,-34.05099868774414 C51.21900177001953,-23.1200008392334 50.62300109863281,-5.745999813079834 41.678001403808594,2.7780001163482666 C30.368999481201172,13.553999900817871 15.623000144958496,0.7450000047683716 -4.698999881744385,9.597999572753906 C-29.125999450683594,20.23900032043457 -33.09199905395508,49.75400161743164 -41.52799987792969,47.79100036621094 C-48.16299819946289,46.24700164794922 -50.24100112915039,26.929000854492188 -48.347999572753906,12.326000213623047z"></path></g></g><g transform="matrix(0.996084988117218,-0.08840072900056839,0.08840072900056839,0.996084988117218,2082.480712890625,1117.409912109375)" opacity="1" style="display: block;"><g opacity="1" transform="matrix(1,0,0,1,0,0)"><path fill="url(#__lottie_element_240)" fill-opacity="1" d=" M220,-152.5709991455078 C214.156005859375,-144.57699584960938 151.32200622558594,-41.6870002746582 59.29399871826172,-45.69200134277344 C19.516000747680664,-47.42399978637695 -15.779999732971191,-64.20600128173828 -43.80699920654297,-88.08999633789062 C-73.00499725341797,-116.92900085449219 -115.58399963378906,-131.14599609375 -158.81199645996094,-122.31500244140625 C-227.68299865722656,-108.24500274658203 -272.1090087890625,-41.007999420166016 -258.03900146484375,27.863000869750977 C-250.3719940185547,65.39299774169922 -226.91600036621094,95.66000366210938 -196.01199340820312,113.16200256347656 C-188.531005859375,118.39299774169922 -180.5330047607422,123.11399841308594 -171.98599243164062,127.18599700927734 C-46.35100173950195,187.04100036621094 121.44300079345703,150.47799682617188 260.6400146484375,-84.68399810791016 C244.89700317382812,-110.98600006103516 235.7449951171875,-126.26799774169922 220,-152.5709991455078z"></path></g></g><g transform="matrix(1,0,0,1,1908.5789794921875,952.4849853515625)" opacity="1" style="display: block;"><g opacity="1" transform="matrix(1,0,0,1,0,0)"><path fill="url(#__lottie_element_236)" fill-opacity="1" d=" M40.52299880981445,-11.234999656677246 C-23.465999603271484,-149.91000366210938 123.55400085449219,-198.6199951171875 56.84299850463867,-278.4049987792969 C42.08399963378906,-296.0559997558594 13.020999908447266,-310.30999755859375 -27.99799919128418,-262.40899658203125 C-61.63399887084961,-223.1300048828125 -202.572998046875,-58.54600143432617 -140.45700073242188,124.57099914550781 C-136.24600219726562,136.98599243164062 -117.01899719238281,193.656005859375 -75.80599975585938,240.29100036621094 C-44.96799850463867,284.72900390625 12.185999870300293,306.1340026855469 66.572998046875,289.2149963378906 C133.69400024414062,268.3340148925781 171.1790008544922,196.9949951171875 150.29800415039062,129.87399291992188 C141.2949981689453,100.93399810791016 122.90599822998047,77.51000213623047 99.5250015258789,61.89099884033203 C73.24400329589844,41.39899826049805 52.68000030517578,15.107999801635742 40.52299880981445,-11.234999656677246z"></path></g></g><g transform="matrix(1,0,0,1,2605.631103515625,1090.5870361328125)" opacity="1" style="display: block;"><g opacity="1" transform="matrix(1,0,0,1,0,0)"><path fill="url(#__lottie_element_220)" fill-opacity="1" d=" M92.2300033569336,90.95600128173828 C93.0780029296875,90.95600128173828 93.93900299072266,90.7770004272461 94.76399993896484,90.4010009765625 C97.83699798583984,89.0009994506836 99.19300079345703,85.37200164794922 97.7959976196289,82.29299926757812 C95.46900177001953,77.197998046875 39.41400146484375,-43.10300064086914 -90.12000274658203,-90.5739974975586 C-93.30000305175781,-91.75199890136719 -96.80999755859375,-90.11299896240234 -97.97000122070312,-86.93199920654297 C-99.13500213623047,-83.75800323486328 -97.50399780273438,-80.24400329589844 -94.3280029296875,-79.08300018310547 C30.266000747680664,-33.417999267578125 86.10099792480469,86.17400360107422 86.6510009765625,87.3740005493164 C87.67900085449219,89.62899780273438 89.90299987792969,90.95600128173828 92.2300033569336,90.95600128173828z"></path></g></g><g transform="matrix(1,0,0,1,0,0)" opacity="1" style="display: block;"><g opacity="1" transform="matrix(1,0,0,1,0,0)"><g opacity="1" transform="matrix(1,0,0,1,2464.52490234375,965.4949951171875)"><path fill="url(#__lottie_element_213)" fill-opacity="1" d=" M123.89199829101562,-142.8459930419922 C123.89199829101562,-142.8459930419922 35.43899917602539,139.7050018310547 35.43899917602539,139.7050018310547 C32.53799819946289,148.97000122070312 24.107999801635742,155.39599609375 14.406999588012695,155.73899841308594 C14.406999588012695,155.73899841308594 -101.25199890136719,172.55299377441406 -101.25199890136719,172.55299377441406 C-116.16899871826172,173.08099365234375 -127.58999633789062,159.41700744628906 -124.42400360107422,144.83099365234375 C-124.42400360107422,144.83099365234375 -46.430999755859375,-144.3800048828125 -46.430999755859375,-144.3800048828125 C-44.20600128173828,-154.64500427246094 -35.277000427246094,-162.0760040283203 -24.77899932861328,-162.40199279785156 C-24.77899932861328,-162.40199279785156 101.34100341796875,-172.55599975585938 101.34100341796875,-172.55599975585938 C117.07499694824219,-173.04600524902344 128.59500122070312,-157.87100219726562 123.89199829101562,-142.8459930419922z"></path></g><g opacity="1" transform="matrix(1,0,0,1,2469.239013671875,970.5780029296875)"><path fill="url(#__lottie_element_214)" fill-opacity="1" d=" M114.93499755859375,-138.63900756835938 C114.93499755859375,-138.63900756835938 29.086999893188477,135.58900451660156 29.086999893188477,135.58900451660156 C26.273000717163086,144.58099365234375 18.091999053955078,150.81900024414062 8.677000045776367,151.14999389648438 C8.677000045776367,151.14999389648438 -92.96299743652344,167.4709930419922 -92.96299743652344,167.4709930419922 C-107.43900299072266,167.98199462890625 -118.5250015258789,154.7209930419922 -115.4520034790039,140.56500244140625 C-115.4520034790039,140.56500244140625 -39.27299880981445,-140.2899932861328 -39.27299880981445,-140.2899932861328 C-37.11199951171875,-150.2519989013672 -28.44700050354004,-157.46400451660156 -18.259000778198242,-157.781005859375 C-18.259000778198242,-157.781005859375 93.0469970703125,-167.4739990234375 93.0469970703125,-167.4739990234375 C108.31999969482422,-167.94900512695312 119.5,-153.22000122070312 114.93499755859375,-138.63900756835938z"></path></g><g opacity="0.3" transform="matrix(1,0,0,1,2419.337890625,990.43798828125)" style="mix-blend-mode: multiply;"><path fill="url(#__lottie_element_215)" fill-opacity="1" d=" M-65.552001953125,120.70500183105469 C-65.552001953125,120.70500183105469 7.230000019073486,-147.62399291992188 7.230000019073486,-147.62399291992188 C12.633000373840332,-144.95799255371094 20.43600082397461,-140.83399963378906 27.760000228881836,-134.552001953125 C56.426998138427734,-109.96399688720703 72.84500122070312,-65.46199798583984 63.38199996948242,-29.865999221801758 C51.31399917602539,15.529000282287598 4.994999885559082,16.933000564575195 -1.4110000133514404,54.70399856567383 C-6.425000190734863,84.27200317382812 17.55699920654297,115.56800079345703 37.36399841308594,134.69700622558594 C37.36399841308594,134.69700622558594 -43.0620002746582,147.61000061035156 -43.0620002746582,147.61000061035156 C-57.5369987487793,148.1219940185547 -68.62300109863281,134.86000061035156 -65.552001953125,120.70500183105469z"></path></g></g><g opacity="1" transform="matrix(1,0,0,1,2493.301025390625,1031.81005859375)"><path fill="url(#__lottie_element_216)" fill-opacity="1" d=" M41.74300003051758,-7.839000225067139 C41.74300003051758,-7.839000225067139 36.340999603271484,-16.672000885009766 36.340999603271484,-16.672000885009766 C31.562999725341797,-35.018001556396484 13.939000129699707,-46.98899841308594 -4.876999855041504,-44.66899871826172 C-4.876999855041504,-44.66899871826172 -33.25899887084961,-41.16899871826172 -33.25899887084961,-41.16899871826172 C-42.13999938964844,-40.07400131225586 -48.150001525878906,-31.624000549316406 -46.323001861572266,-22.86400032043457 C-43.68199920654297,-10.196000099182129 -36.88600158691406,4.960999965667725 -19.447999954223633,3.7839999198913574 C10.175000190734863,1.7860000133514404 29.11199951171875,44.95600128173828 29.11199951171875,44.95600128173828 C29.11199951171875,44.95600128173828 40.48099899291992,28.94300079345703 40.48099899291992,28.94300079345703 C48.222999572753906,18.040000915527344 48.71900177001953,3.569000005722046 41.74300003051758,-7.839000225067139z"></path></g></g><g transform="matrix(0.9994304180145264,0.033746249973773956,-0.033746249973773956,0.9994304180145264,20.625732421875,-74.77252197265625)" opacity="1" style="display: block;"><g opacity="1" transform="matrix(1,0,0,1,2295.58203125,523.989990234375)"><path fill="url(#__lottie_element_208)" fill-opacity="1" d=" M20.16200065612793,28.51099967956543 C44.71200180053711,24.874000549316406 72.21099853515625,4.235000133514404 71.6760025024414,-12.817000389099121 C70.94200134277344,-36.25400161743164 17.364999771118164,-49.0890007019043 -9.687000274658203,-55.56999969482422 C-36.821998596191406,-62.06999969482422 -48.33100128173828,-59.71799850463867 -56.097999572753906,-53.80500030517578 C-64.03399658203125,-47.76300048828125 -69.24700164794922,-36.94900131225586 -70.9530029296875,-27.62299919128418 C-71.88300323486328,-22.541000366210938 -71.93199920654297,-15.54800033569336 -71.06199645996094,-1.6119999885559082 C-70.28800201416016,10.755000114440918 -70.51499938964844,10.213000297546387 -70.19499969482422,13.866000175476074 C-69.4229965209961,22.641000747680664 -67.02899932861328,38.07400131225586 -58.47600173950195,59.46799850463867 C-54.9119987487793,55.5620002746582 -50.19599914550781,50.89500045776367 -44.23899841308594,46.29600143432617 C-41.948001861572266,44.5260009765625 -32.87900161743164,37.67399978637695 -22.569000244140625,33.52299880981445 C-4.872000217437744,26.39699935913086 5.258999824523926,30.718000411987305 20.16200065612793,28.51099967956543z"></path></g><g opacity="1" transform="matrix(1,0,0,1,2264.907958984375,562.0440063476562)"><path fill="url(#__lottie_element_209)" fill-opacity="1" d=" M-40.862998962402344,-2.430000066757202 C-40.862998962402344,-2.430000066757202 -39.27299880981445,31.768999099731445 -7.047999858856201,46.784000396728516 C21.80699920654297,60.22700119018555 60.10100173950195,-0.01600000075995922 49.566001892089844,-23.020999908447266 C46.051998138427734,-30.694000244140625 35.167999267578125,-39.04199981689453 24.016000747680664,-41.62699890136719 C17.43000030517578,-43.15399932861328 14.196999549865723,-41.8390007019043 3.4830000400543213,-44.54199981689453 C-6.396999835968018,-47.0369987487793 -8.319000244140625,-49.33599853515625 -12.133999824523926,-48.56700134277344 C-16.906999588012695,-47.608001708984375 -22.992000579833984,-42.17499923706055 -27.538999557495117,-20.92300033569336 C-29.9060001373291,-29.215999603271484 -35.15599822998047,-34.7760009765625 -40.84400177001953,-35.117000579833984 C-41.75199890136719,-35.17100143432617 -44.37900161743164,-34.917999267578125 -46.534000396728516,-33.53499984741211 C-54.33700180053711,-28.5310001373291 -52.8120002746582,-15.848999977111816 -40.862998962402344,-2.430000066757202z"></path></g></g></g></svg>